<svg width="45" height="44" viewBox="0 0 45 44" fill="none" xmlns="http://www.w3.org/2000/svg">
<path d="M10.4167 43.75V38.9167H20.0833V31.425C18.1097 30.9819 16.348 30.1466 14.7981 28.9189C13.2482 27.6912 12.1099 26.1502 11.3833 24.2958C8.3625 23.9333 5.83547 22.6146 3.80225 20.3398C1.76903 18.0649 0.751611 15.3961 0.75 12.3333V9.91667C0.75 8.5875 1.22367 7.45006 2.171 6.50433C3.11833 5.55861 4.25578 5.08494 5.58333 5.08333H10.4167V0.25H34.5833V5.08333H39.4167C40.7458 5.08333 41.8841 5.557 42.8314 6.50433C43.7787 7.45167 44.2516 8.58911 44.25 9.91667V12.3333C44.25 15.3944 43.2326 18.0632 41.1977 20.3398C39.1629 22.6162 36.6359 23.9349 33.6167 24.2958C32.8917 26.1486 31.7542 27.6896 30.2043 28.9189C28.6544 30.1482 26.8919 30.9836 24.9167 31.425V38.9167H34.5833V43.75H10.4167ZM10.4167 19.1V9.91667H5.58333V12.3333C5.58333 13.8639 6.02639 15.2438 6.9125 16.4731C7.79861 17.7024 8.96667 18.578 10.4167 19.1ZM22.5 26.8333C24.5139 26.8333 26.2257 26.1285 27.6354 24.7188C29.0451 23.309 29.75 21.5972 29.75 19.5833V5.08333H15.25V19.5833C15.25 21.5972 15.9549 23.309 17.3646 24.7188C18.7743 26.1285 20.4861 26.8333 22.5 26.8333ZM34.5833 19.1C36.0333 18.5764 37.2014 17.6999 38.0875 16.4707C38.9736 15.2414 39.4167 13.8623 39.4167 12.3333V9.91667H34.5833V19.1Z" fill="#E93580"/>
</svg>
