<svg width="20" height="20" viewBox="0 0 20 20" fill="none" xmlns="http://www.w3.org/2000/svg">
<path fill-rule="evenodd" clip-rule="evenodd" d="M7.66576 0.183368C9.51319 -0.184108 11.4281 0.00449421 13.1683 0.725324C14.9086 1.44615 16.396 2.66684 17.4425 4.23301C18.4889 5.79918 19.0475 7.6405 19.0475 9.52412C19.0475 10.0501 18.6211 10.4765 18.0951 10.4765C17.5691 10.4765 17.1427 10.0501 17.1427 9.52412C17.1427 8.87809 17.0606 8.23828 16.9008 7.61937H2.14669C2.11099 7.75763 2.07912 7.89714 2.05115 8.03773C1.82685 9.16536 1.86152 10.3244 2.14668 11.4289H9.04756C9.57355 11.4289 9.99994 11.8553 9.99994 12.3812C9.99994 12.9072 9.57355 13.3336 9.04756 13.3336H2.9255C3.50762 14.3419 4.31549 15.2074 5.29086 15.8591C6.5438 16.6963 8.01686 17.1431 9.52375 17.1431C10.0497 17.1431 10.4761 17.5695 10.4761 18.0955C10.4761 18.6215 10.0497 19.0479 9.52375 19.0479C7.64013 19.0479 5.79881 18.4893 4.23264 17.4428C2.66647 16.3963 1.44579 14.9089 0.724956 13.1687C0.00412648 11.4285 -0.184475 9.51356 0.183 7.66613C0.550476 5.8187 1.45753 4.12173 2.78945 2.78981C4.12137 1.45789 5.81834 0.550844 7.66576 0.183368ZM2.92551 5.71462H16.122C16.0391 5.57097 15.9513 5.42975 15.8587 5.29123C15.0215 4.03829 13.8316 3.06175 12.4394 2.48508C11.0472 1.90842 9.5153 1.75754 8.03736 2.05152C6.55942 2.3455 5.20184 3.07114 4.13631 4.13667C3.66294 4.61004 3.25666 5.14104 2.92551 5.71462Z" fill="#E93580"/>
<path fill-rule="evenodd" clip-rule="evenodd" d="M9.52367 0.127954C9.08116 -0.127886 8.51219 0.0116012 8.23952 0.448549C6.54072 3.17083 5.64008 6.31527 5.64008 9.52412C5.64008 12.733 6.54072 15.8774 8.23952 18.5997C8.51798 19.0459 9.10546 19.1819 9.55168 18.9035C9.99791 18.625 10.1339 18.0375 9.85545 17.5913C8.3454 15.1715 7.54483 12.3764 7.54483 9.52412C7.54483 6.88844 8.22841 4.30166 9.52369 2.01466C10.7624 4.20153 11.4427 6.66413 11.4991 9.18355C11.5109 9.7094 11.9468 10.1261 12.4726 10.1144C12.9985 10.1026 13.4152 9.66674 13.4034 9.14089C13.3345 6.06292 12.4379 3.06032 10.8078 0.448506C10.5351 0.0115874 9.96616 -0.127876 9.52367 0.127954ZM12.5442 12.5446C13.2586 11.8302 14.2276 11.4289 15.2379 11.4289C16.2483 11.4289 17.2172 11.8302 17.9316 12.5446C18.6461 13.2591 19.0474 14.228 19.0474 15.2384C19.0474 15.9247 18.8622 16.5918 18.5195 17.1731L19.7208 18.3744C20.0928 18.7464 20.0928 19.3494 19.7208 19.7213C19.3489 20.0932 18.7459 20.0932 18.374 19.7213L17.1727 18.52C16.5914 18.8627 15.9242 19.0479 15.2379 19.0479C14.2276 19.0479 13.2586 18.6465 12.5442 17.9321C11.8298 17.2177 11.4284 16.2487 11.4284 15.2384C11.4284 14.228 11.8298 13.2591 12.5442 12.5446ZM15.2379 13.3336C14.7327 13.3336 14.2483 13.5343 13.8911 13.8915C13.5338 14.2487 13.3332 14.7332 13.3332 15.2384C13.3332 15.7435 13.5338 16.228 13.8911 16.5852C14.2483 16.9424 14.7327 17.1431 15.2379 17.1431C15.7431 17.1431 16.2276 16.9424 16.5848 16.5852C16.942 16.228 17.1427 15.7435 17.1427 15.2384C17.1427 14.7332 16.942 14.2487 16.5848 13.8915C16.2276 13.5343 15.7431 13.3336 15.2379 13.3336Z" fill="#E93580"/>
</svg>
