<svg width="26" height="26" viewBox="0 0 26 26" fill="none" xmlns="http://www.w3.org/2000/svg">
<path d="M18.0388 16.4091L17.3942 17.0509C17.3942 17.0509 15.8599 18.5752 11.6737 14.413C7.48742 10.2509 9.02167 8.72654 9.02167 8.72654L9.42684 8.32137C10.4284 7.32687 10.5233 5.72887 9.64926 4.56154L7.86426 2.17729C6.78192 0.732289 4.69234 0.541039 3.45276 1.77354L1.22859 3.98354C0.615174 4.59554 0.204341 5.38604 0.253924 6.26437C0.381424 8.51262 1.39859 13.3477 7.07092 18.9889C13.0875 24.97 18.7329 25.208 21.0407 24.9927C21.7717 24.9247 22.4063 24.5535 22.9178 24.0435L24.9294 22.0432C26.2894 20.6931 25.9069 18.3769 24.1673 17.432L21.4614 15.96C20.3196 15.341 18.9313 15.5223 18.0388 16.4091Z" fill="white"/>
</svg>
