<svg width="18" height="18" viewBox="0 0 18 18" fill="none" xmlns="http://www.w3.org/2000/svg">
<path d="M13 12C14.306 12 15.418 12.835 15.83 14H17C17.2652 14 17.5196 14.1054 17.7071 14.2929C17.8946 14.4804 18 14.7348 18 15C18 15.2652 17.8946 15.5196 17.7071 15.7071C17.5196 15.8946 17.2652 16 17 16H15.83C15.6234 16.5855 15.2403 17.0926 14.7334 17.4512C14.2265 17.8099 13.6209 18.0025 13 18.0025C12.3791 18.0025 11.7735 17.8099 11.2666 17.4512C10.7597 17.0926 10.3766 16.5855 10.17 16H1C0.734784 16 0.48043 15.8946 0.292893 15.7071C0.105357 15.5196 0 15.2652 0 15C0 14.7348 0.105357 14.4804 0.292893 14.2929C0.48043 14.1054 0.734784 14 1 14H10.17C10.3769 13.4148 10.7602 12.9083 11.267 12.5501C11.7739 12.1919 12.3793 11.9997 13 12ZM5 6C5.58899 5.99992 6.16497 6.17322 6.65613 6.49829C7.14729 6.82336 7.5319 7.28582 7.762 7.828L7.829 8H17C17.2549 8.00028 17.5 8.09788 17.6854 8.27285C17.8707 8.44782 17.9822 8.68695 17.9972 8.94139C18.0121 9.19584 17.9293 9.44638 17.7657 9.64183C17.6021 9.83729 17.3701 9.9629 17.117 9.993L17 10H7.83C7.6284 10.5703 7.25917 11.0663 6.77073 11.4231C6.28229 11.7799 5.69744 11.9808 5.09285 11.9994C4.48827 12.018 3.89217 11.8534 3.38273 11.5273C2.87328 11.2012 2.47427 10.7288 2.238 10.172L2.17 10H1C0.74512 9.99972 0.499968 9.90212 0.314632 9.72715C0.129296 9.55218 0.017765 9.31305 0.00282788 9.05861C-0.0121092 8.80416 0.0706746 8.55362 0.234265 8.35817C0.397855 8.16271 0.629904 8.0371 0.883 8.007L1 8H2.17C2.37688 7.41484 2.76016 6.90826 3.26702 6.55006C3.77387 6.19186 4.37935 5.99968 5 6ZM13 4.12473e-07C14.306 4.12473e-07 15.418 0.835001 15.83 2H17C17.2652 2 17.5196 2.10536 17.7071 2.29289C17.8946 2.48043 18 2.73478 18 3C18 3.26522 17.8946 3.51957 17.7071 3.70711C17.5196 3.89464 17.2652 4 17 4H15.83C15.6234 4.58553 15.2403 5.09257 14.7334 5.45121C14.2265 5.80986 13.6209 6.00245 13 6.00245C12.3791 6.00245 11.7735 5.80986 11.2666 5.45121C10.7597 5.09257 10.3766 4.58553 10.17 4H1C0.734784 4 0.48043 3.89464 0.292893 3.70711C0.105357 3.51957 0 3.26522 0 3C0 2.73478 0.105357 2.48043 0.292893 2.29289C0.48043 2.10536 0.734784 2 1 2H10.17C10.3769 1.41484 10.7602 0.908257 11.267 0.550056C11.7739 0.191856 12.3793 -0.00032496 13 4.12473e-07Z" fill="#E93580"/>
</svg>
