<svg width="35" height="29" viewBox="0 0 35 29" fill="none" xmlns="http://www.w3.org/2000/svg">
<path fill-rule="evenodd" clip-rule="evenodd" d="M30.9616 0.383275C31.3735 0.209927 31.8243 0.15014 32.2671 0.210137C32.7099 0.270134 33.1285 0.447722 33.4794 0.724417C33.8303 1.00111 34.1006 1.3668 34.2622 1.78341C34.4238 2.20003 34.4708 2.65234 34.3983 3.09328L30.6183 26.0216C30.2516 28.2333 27.825 29.5016 25.7966 28.3999C24.1 27.4783 21.58 26.0583 19.3133 24.5766C18.18 23.8349 14.7083 21.4599 15.135 19.7699C15.5016 18.3249 21.335 12.8949 24.6683 9.66661C25.9766 8.39828 25.38 7.66661 23.835 8.83328C19.9983 11.7299 13.8383 16.1349 11.8016 17.3749C10.005 18.4683 9.06828 18.6549 7.94828 18.4683C5.90495 18.1283 4.00995 17.6016 2.46328 16.9599C0.373285 16.0933 0.474952 13.2199 2.46162 12.3833L30.9616 0.383275Z" fill="#62D0FF"/>
</svg>
