<svg width="31" height="30" viewBox="0 0 31 30" fill="none" xmlns="http://www.w3.org/2000/svg">
<path d="M5.21169 4.71238C4.63836 5.29405 4.26169 6.11071 4.05169 7.66238C3.83669 9.27071 3.83502 11.4007 3.83502 14.4657V15.5324C3.83502 18.5924 3.83669 20.7207 4.05169 22.3274C4.26002 23.8807 4.63836 24.7024 5.21336 25.289C5.79669 25.8607 6.61336 26.239 8.16336 26.4474C9.77169 26.6624 11.9017 26.6657 14.9667 26.6657H16.0334C19.0934 26.6657 21.2217 26.6624 22.83 26.4474C24.3817 26.239 25.2034 25.8607 25.79 25.2857C26.3617 24.704 26.74 23.8874 26.9484 22.3357C27.165 20.7274 27.1667 18.5974 27.1667 15.5324V14.4657C27.1667 11.4057 27.1634 9.27738 26.95 7.67071C26.74 6.11738 26.3617 5.29571 25.7867 4.70905C25.205 4.13738 24.3884 3.75905 22.8367 3.55071C21.2284 3.33571 19.0984 3.33238 16.0334 3.33238H14.9667C11.9067 3.33238 9.77836 3.33571 8.17169 3.55071C6.61836 3.75905 5.79836 4.13738 5.21169 4.71238ZM14.9667 -0.000954045H16.0334C18.4417 -0.000954045 20.8867 -0.0726208 23.2784 0.247379C25.205 0.505713 26.8367 1.05738 28.14 2.34738L28.1534 2.36238C29.4417 3.66905 29.995 5.30071 30.2534 7.22905C30.5717 9.61738 30.5 12.0607 30.5 14.4657V15.5324C30.5 17.939 30.5734 20.384 30.2517 22.7774C29.995 24.704 29.4417 26.3357 28.1517 27.639L28.1367 27.6524C26.8317 28.9407 25.2 29.4924 23.27 29.7524C20.8817 30.0707 18.4384 29.999 16.0334 29.999H14.9667C12.56 29.999 10.115 30.0707 7.72336 29.7507C5.79502 29.4924 4.16336 28.9407 2.86169 27.6507L2.84669 27.6357C1.56002 26.329 1.00669 24.6974 0.748356 22.769C0.428356 20.3824 0.500023 17.939 0.500023 15.5324V14.4657C0.500023 12.059 0.428356 9.61405 0.750023 7.22071C1.00669 5.29405 1.56002 3.66238 2.85002 2.35905L2.86336 2.34571C4.17002 1.05738 5.80169 0.505713 7.73002 0.245713C10.12 -0.070954 12.5634 -0.000954045 14.9667 -0.000954045ZM5.56002 9.12905C5.72002 16.929 9.62002 21.609 16.46 21.609H16.86V17.149C19.37 17.399 21.27 19.239 22.03 21.609H25.58C25.2161 20.2622 24.5707 19.0079 23.6864 17.9288C22.8021 16.8498 21.6991 15.9705 20.45 15.349C21.569 14.6674 22.5355 13.7623 23.2891 12.6904C24.0427 11.6185 24.5673 10.4027 24.83 9.11905H21.61C20.91 11.599 18.83 13.849 16.86 14.059V9.12905H13.63V17.769C11.63 17.269 9.11002 14.849 9.00002 9.12905H5.56002Z" fill="#3A90FF"/>
</svg>
