<svg width="20" height="20" viewBox="0 0 20 20" fill="none" xmlns="http://www.w3.org/2000/svg">
<path fill-rule="evenodd" clip-rule="evenodd" d="M16.3809 0.54278C16.3504 0.419841 16.2878 0.307211 16.1995 0.216412C16.1112 0.125613 16.0003 0.0599061 15.8783 0.0260122C15.7562 -0.0078817 15.6274 -0.00874542 15.5049 0.0235094C15.3824 0.0557642 15.2706 0.11998 15.1811 0.209586L12.3211 3.06962C12.2339 3.15703 12.1708 3.26553 12.1379 3.38457C12.1051 3.50361 12.1037 3.62912 12.1338 3.74888L12.6486 5.81382L12.6285 5.83384L9.20938 9.25301C9.01993 9.45632 8.91679 9.72523 8.92169 10.0031C8.92659 10.2809 9.03915 10.546 9.23566 10.7425C9.43216 10.939 9.69726 11.0516 9.97512 11.0565C10.253 11.0614 10.5219 10.9583 10.7252 10.7688L14.1472 7.35109L14.1672 7.32964L16.2308 7.84587C16.3505 7.87596 16.476 7.87452 16.5951 7.84169C16.7141 7.80886 16.8226 7.74576 16.91 7.65854L19.77 4.79851C19.86 4.70902 19.9246 4.59719 19.957 4.47451C19.9895 4.35183 19.9887 4.22272 19.9548 4.10044C19.9209 3.97815 19.8551 3.86709 19.764 3.77867C19.673 3.69025 19.5601 3.62765 19.4369 3.5973L16.993 2.98811L16.3809 0.54278ZM10.4206 1.08619C10.4402 1.36986 10.3464 1.64972 10.1598 1.86425C9.97316 2.07878 9.70897 2.21041 9.42531 2.2302C7.93122 2.33374 6.49827 2.86403 5.29671 3.75805C4.09515 4.65207 3.17551 5.87224 2.64705 7.27357C2.11859 8.67491 2.00353 10.1985 2.31555 11.6633C2.62756 13.1281 3.35354 14.4726 4.40721 15.5369C5.46087 16.6012 6.79794 17.3407 8.25953 17.6674C9.72112 17.9942 11.2458 17.8945 12.6524 17.3801C14.059 16.8658 15.2883 15.9585 16.1944 14.766C17.1005 13.5735 17.6452 12.146 17.7637 10.653C17.7863 10.3693 17.9206 10.1062 18.1372 9.92156C18.3537 9.73692 18.6348 9.64586 18.9185 9.66843C19.2022 9.691 19.4653 9.82533 19.6499 10.0419C19.8345 10.2584 19.9256 10.5395 19.903 10.8232C19.7517 12.7254 19.0575 14.5442 17.9029 16.0635C16.7483 17.5828 15.1818 18.7387 13.3896 19.394C11.5974 20.0492 9.65471 20.1761 7.79244 19.7598C5.93018 19.3434 4.22657 18.4012 2.88403 17.0451C1.54149 15.689 0.616451 13.9761 0.218807 12.1097C-0.178836 10.2434 -0.0323649 8.30208 0.640819 6.51652C1.314 4.73097 2.4856 3.17618 4.01642 2.03689C5.54724 0.897596 7.37293 0.221687 9.27659 0.0894648C9.56026 0.0698182 9.84012 0.163626 10.0546 0.350265C10.2692 0.536903 10.4008 0.802525 10.4206 1.08619ZM9.45963 5.80381C9.51102 5.93498 9.53606 6.07499 9.53333 6.21584C9.53059 6.35669 9.50014 6.49562 9.4437 6.6247C9.38726 6.75378 9.30594 6.87047 9.2044 6.96812C9.10285 7.06576 8.98306 7.14245 8.85187 7.19379C8.38289 7.37775 7.96714 7.67568 7.64221 8.06066C7.31727 8.44563 7.0934 8.90551 6.99081 9.39873C6.88823 9.89195 6.91017 10.403 7.05466 10.8856C7.19915 11.3682 7.46162 11.8072 7.81836 12.1629C8.1751 12.5186 8.61486 12.7798 9.09789 12.9228C9.58092 13.0659 10.092 13.0864 10.5849 12.9824C11.0778 12.8783 11.537 12.6531 11.9211 12.3271C12.3051 12.001 12.6018 11.5844 12.7844 11.1149C12.8355 10.9836 12.9119 10.8637 13.0094 10.762C13.1068 10.6602 13.2233 10.5787 13.3522 10.522C13.4812 10.4653 13.62 10.4346 13.7608 10.4315C13.9017 10.4285 14.0417 10.4532 14.173 10.5043C14.3042 10.5554 14.4241 10.6318 14.5259 10.7292C14.6276 10.8266 14.7091 10.9431 14.7658 11.0721C14.8225 11.201 14.8533 11.3399 14.8563 11.4807C14.8594 11.6215 14.8347 11.7616 14.7836 11.8928C14.4717 12.6946 13.9649 13.406 13.309 13.9627C12.6531 14.5195 11.8688 14.904 11.027 15.0814C10.1852 15.2589 9.31248 15.2238 8.48765 14.9793C7.66283 14.7348 6.91196 14.2885 6.30291 13.6809C5.69387 13.0733 5.24587 12.3235 4.9994 11.4992C4.75293 10.675 4.71577 9.80228 4.89128 8.96006C5.06679 8.11785 5.44944 7.33265 6.00462 6.67547C6.55981 6.01828 7.27003 5.50982 8.07108 5.19605C8.33582 5.09272 8.63076 5.09868 8.8911 5.21263C9.15145 5.32658 9.35593 5.53921 9.45963 5.80381Z" fill="#E93580"/>
</svg>
