<?xml version="1.0" encoding="UTF-8"?>
<svg id="b" data-name="Слой_2" xmlns="http://www.w3.org/2000/svg" viewBox="0 0 387.17 199.66">
  <defs>
    <style>
      .d {
        fill: #fff;
      }
    </style>
  </defs>
  <g id="c" data-name="Слой_2">
    <path class="d" d="M200.17,167.12c-30.47-32.85-32.77-80.6-12.81-116.75C145.73-25.4,22.94-15.68,2.16,79.52c-18.44,89.48,85.21,154.95,158,100v20h40c-.22-4.74-.11-17.19.01-32.4ZM156.74,119.52c-28.79,73.94-137.24,35.58-113.16-40,28.79-73.94,137.24-35.58,113.16,40Z"/>
    <path class="d" d="M387.16,99.62c.96,81.38-95.69,129.52-160,80C158.52,128.79,183.25,18.3,267.16,1.62v41.42c-52.77,17.91-52.74,95.26,0,113.16v-36.58h40v36.58c52.77-17.91,52.74-95.26,0-113.16V1.62c45.8,8.84,80.54,51.29,80,98Z"/>
  </g>
</svg>