<svg width="20" height="20" viewBox="0 0 20 20" fill="none" xmlns="http://www.w3.org/2000/svg">
<path d="M1 19V15C1 14.2089 1.2346 13.4355 1.67412 12.7777C2.11365 12.1199 2.73836 11.6072 3.46927 11.3045C4.20017 11.0017 5.00444 10.9225 5.78036 11.0769C6.55629 11.2312 7.26902 11.6122 7.82843 12.1716C8.38784 12.731 8.7688 13.4437 8.92314 14.2196C9.07748 14.9956 8.99827 15.7998 8.69552 16.5307C8.39277 17.2616 7.88008 17.8864 7.22228 18.3259C6.56448 18.7654 5.79113 19 5 19H1Z" stroke="#E93580" stroke-width="2" stroke-linecap="round" stroke-linejoin="round"/>
<path d="M6.2002 11.2C7.21789 8.50499 8.94433 6.13474 11.1973 4.33944C13.4502 2.54414 16.146 1.3904 19.0002 1C18.6098 3.85418 17.4561 6.55002 15.6608 8.80295C13.8655 11.0559 11.4952 12.7823 8.8002 13.8" stroke="#E93580" stroke-width="2" stroke-linecap="round" stroke-linejoin="round"/>
<path d="M8.59961 7C10.5428 7.89687 12.1027 9.45683 12.9996 11.4" stroke="#E93580" stroke-width="2" stroke-linecap="round" stroke-linejoin="round"/>
</svg>
