<svg width="39" height="50" viewBox="0 0 39 50" fill="none" xmlns="http://www.w3.org/2000/svg">
<path fill-rule="evenodd" clip-rule="evenodd" d="M7.11301 1.50202C7.34028 0.617992 8.13725 0 9.05002 0H26.05C26.6647 0 27.2452 0.282645 27.6243 0.766487C28.0034 1.25033 28.139 1.88162 27.9919 2.47845L25.2026 13.8H36.25C37.0428 13.8 37.7608 14.2683 38.0804 14.9939C38.3999 15.7195 38.2607 16.5653 37.7255 17.1502L8.2588 49.3502C7.64509 50.0208 6.6563 50.1932 5.85186 49.7698C5.04741 49.3464 4.6297 48.4338 4.83505 47.5482L8.79985 30.45H2.25002C1.63181 30.45 1.04835 30.1641 0.669517 29.6756C0.290688 29.187 0.159078 28.5508 0.313007 27.952L7.11301 1.50202ZM10.6009 4L4.82923 26.45H11.3167C11.9265 26.45 12.5031 26.7283 12.8825 27.2057C13.2619 27.6832 13.4028 28.3077 13.265 28.9018L10.4533 41.0271L31.7088 17.8H22.65C22.0353 17.8 21.4548 17.5174 21.0757 17.0335C20.6966 16.5497 20.561 15.9184 20.7081 15.3216L23.4975 4H10.6009ZM15.1951 8.10807C16.2676 8.37231 16.9229 9.45595 16.6586 10.5284L14.3919 19.7284C14.1277 20.8009 13.0441 21.4562 11.9716 21.1919C10.8991 20.9277 10.2439 19.8441 10.5081 18.7716L12.7748 9.57155C13.039 8.49906 14.1226 7.84383 15.1951 8.10807Z" fill="#E93580"/>
</svg>
