<svg width="46" height="46" viewBox="0 0 46 46" fill="none" xmlns="http://www.w3.org/2000/svg">
<path d="M9.61323 4.45857C9.70134 4.57643 9.82371 4.66422 9.96364 4.70995C10.1036 4.75567 10.2542 4.7571 10.395 4.71403C10.5357 4.67096 10.6597 4.58549 10.7501 4.46932C10.8404 4.35314 10.8926 4.21192 10.8996 4.06497L11.1187 0.781246C11.1277 0.664764 11.1085 0.547829 11.0626 0.44039C11.0166 0.332952 10.9454 0.238189 10.855 0.164166C10.7645 0.0901422 10.6575 0.0390483 10.5431 0.0152314C10.4286 -0.00858558 10.3101 -0.0044206 10.1976 0.0273718L8.03785 0.698717C7.92612 0.735433 7.82469 0.798129 7.74193 0.88165C7.65916 0.965172 7.5974 1.06713 7.56175 1.17915C7.52609 1.29117 7.51755 1.41005 7.53682 1.52601C7.55609 1.64197 7.60262 1.75171 7.6726 1.84619L9.61323 4.45857ZM5.86536 7.03285L2.91153 5.79491C2.80463 5.75148 2.71006 5.68243 2.63615 5.59385C2.56225 5.50527 2.51129 5.39989 2.48775 5.28699C2.46421 5.17408 2.46883 5.05713 2.50119 4.94642C2.53355 4.83572 2.59266 4.73468 2.67332 4.65219L4.21376 3.01748C4.29294 2.93396 4.39114 2.8708 4.49999 2.83337C4.60885 2.79594 4.72515 2.78535 4.83898 2.80249C4.95282 2.81963 5.06082 2.864 5.15381 2.93183C5.2468 2.99966 5.32201 3.08893 5.37305 3.19206L6.78645 6.06472C6.84757 6.19539 6.86785 6.34145 6.84464 6.48382C6.82144 6.62619 6.75582 6.75827 6.65637 6.8628C6.55691 6.96734 6.42823 7.03948 6.28712 7.06982C6.14601 7.10015 5.99903 7.08727 5.86536 7.03285ZM44.173 13.5987C44.7053 14.0576 45.1397 14.6188 45.4504 15.2489C45.7612 15.879 45.9419 16.5652 45.9819 17.2665V32.2567C46.1052 34.6183 45.5978 36.9702 44.5116 39.0711C43.4255 41.1721 41.7997 42.9465 39.8011 44.2124C37.8244 45.3946 35.5601 46.0102 33.2566 45.9915C31.7101 45.9902 30.1748 45.7295 28.7147 45.2202C27.3189 45.7328 25.844 45.9965 24.357 45.9994C22.2846 46.0186 20.2371 45.548 18.3814 44.6259C16.5257 43.7039 14.9143 42.3565 13.6787 40.6938L8.16649 31.6996L4.19629 25.002C3.64251 23.9331 3.47347 22.7063 3.71752 21.5276C3.96157 20.3488 4.60386 19.2898 5.53663 18.5282C5.89447 18.2849 6.27297 18.0791 6.6721 17.9109C6.31915 16.9014 6.29828 15.8056 6.61254 14.7834C6.92681 13.7613 7.55976 12.8663 8.41899 12.229C8.76837 12.0142 9.13363 11.8328 9.51477 11.6847C9.46395 11.272 9.46766 10.8599 9.52589 10.4483C9.63275 9.71366 9.90197 9.01203 10.314 8.39435C10.7261 7.77667 11.2706 7.25845 11.908 6.87731C12.7855 6.38768 13.7882 6.16817 14.7902 6.24639C15.7921 6.32461 16.7486 6.69707 17.5393 7.31694C17.8083 7.03232 18.1095 6.78738 18.443 6.58211C19.4672 5.96837 20.6915 5.78088 21.8526 6.05996C22.5369 5.87632 23.25 5.82514 23.9536 5.90918C24.8564 6.00666 25.7085 6.37518 26.3977 6.96619C26.6708 6.67628 26.9773 6.42605 27.3172 6.21549C28.4047 5.57521 29.7017 5.39158 30.9244 5.7048C32.147 6.01801 33.1958 6.80256 33.841 7.88671L37.1315 13.759C37.5638 13.3144 38.0796 12.9593 38.6495 12.7142C39.2193 12.4691 39.8319 12.3388 40.4522 12.3306C41.8103 12.2552 43.1446 12.7089 44.173 13.5987ZM25.3575 19.5837H25.3479L25.2892 19.6234L25.3305 19.598L25.3575 19.5837ZM14.5236 9.41509C14.1916 9.38954 13.8587 9.45138 13.558 9.59444V9.58809C13.3205 9.72252 13.1168 9.90933 12.9624 10.1343C12.808 10.3593 12.707 10.6165 12.6671 10.8863C12.6259 11.1931 12.6915 11.5046 12.8529 11.7688L15.2096 15.3477C15.2583 14.6639 15.4619 14.0001 15.805 13.4065C16.148 12.8129 16.6216 12.305 17.19 11.9211C17.2662 11.8735 17.3424 11.8402 17.4171 11.8053C17.4679 11.7831 17.5198 11.7582 17.5727 11.7307C17.1622 11.6769 16.789 11.4651 16.5325 11.1403L15.5495 9.87059C15.5147 9.82529 15.4823 9.77813 15.4526 9.72934C15.1757 9.54538 14.8554 9.43704 14.5236 9.41509ZM10.89 14.5732C10.5984 14.6574 10.3203 14.783 10.0642 14.9462L10.069 14.9398C9.83148 15.2269 9.6755 15.5725 9.61739 15.9405C9.55928 16.3085 9.60117 16.6853 9.73869 17.0316C9.94037 17.4189 10.0897 17.6982 10.204 17.914L10.2151 17.9331L12.4464 21.285C12.6211 20.3629 13.0467 19.5059 13.6755 18.8092L10.89 14.5732ZM10.8821 30.0713L16.326 38.959L16.3308 38.9527C17.2829 40.2055 18.5225 41.211 19.9452 41.8845C21.3678 42.5579 22.9316 42.8795 24.5047 42.8221C23.7513 42.1854 23.0811 41.4565 22.51 40.6525L16.9422 31.5695L14.5903 27.6017C14.2469 27.7923 13.8445 27.8475 13.4624 27.7564C13.0803 27.6653 12.7462 27.4346 12.5258 27.1097L8.26019 20.72C7.91673 20.8034 7.59299 20.9533 7.30734 21.1613C7.05685 21.4644 6.88885 21.827 6.81958 22.214C6.75031 22.601 6.78211 22.9994 6.9119 23.3705L10.8821 30.0713ZM31.1619 42.6618C33.552 43.1412 36.0351 42.732 38.1447 41.5111L38.1494 41.5048C39.6533 40.537 40.8759 39.1909 41.6946 37.6017C42.5133 36.0124 42.8992 34.2358 42.8136 32.4503V17.3665C42.7879 17.094 42.7082 16.8293 42.5791 16.5879C42.45 16.3465 42.2742 16.1332 42.0618 15.9604C41.8494 15.7875 41.6047 15.6587 41.342 15.5813C41.0793 15.5039 40.8038 15.4795 40.5316 15.5096C40.124 15.5175 39.7336 15.6751 39.4348 15.9523C39.1361 16.2295 38.9499 16.6069 38.9117 17.0126C39.5279 18.1188 40.0393 19.0298 40.2918 19.4662C40.4816 19.8289 40.5239 20.2509 40.4098 20.6441C40.2957 21.0372 40.034 21.3711 39.6793 21.576C39.3247 21.7808 38.9046 21.8408 38.5068 21.7434C38.1089 21.646 37.7641 21.3988 37.5444 21.0533C37.0416 20.173 36.5446 19.2895 36.0532 18.4029L35.9404 18.2013V18.1061L35.9166 18.0743C35.906 18.0638 35.8965 18.0516 35.888 18.0378L31.1238 9.53254C31.0007 9.27328 30.8051 9.05516 30.5607 8.9045C30.3163 8.75384 30.0335 8.67706 29.7464 8.68344C29.4593 8.68981 29.1802 8.77907 28.9428 8.94043C28.7053 9.1018 28.5196 9.32838 28.4082 9.59285L30.0344 12.2021L30.2106 12.4877C31.4269 14.4519 32.654 16.4094 33.8918 18.36C34.1107 18.7133 34.1822 19.1382 34.091 19.5436C33.9998 19.949 33.7531 20.3024 33.4041 20.5281C33.055 20.7538 32.6313 20.8336 32.2239 20.7505C31.8166 20.6674 31.4581 20.428 31.2254 20.0836C29.9788 18.1184 28.7417 16.1472 27.5141 14.1701L26.1531 11.9862L25.5083 10.9498L25.4877 10.9181L25.4416 10.8419C25.4353 10.8345 25.4279 10.8281 25.4194 10.8229L25.394 10.7975L24.4014 9.50715C24.3672 9.4618 24.3354 9.41465 24.3062 9.36589C24.098 9.17616 23.8286 9.06746 23.547 9.05958C23.1472 8.99194 22.7363 9.04729 22.3687 9.21829C22.1276 9.35609 21.9208 9.54658 21.7638 9.77552C21.6067 10.0045 21.5035 10.2659 21.4619 10.5404C21.4219 10.8341 21.4776 11.1329 21.6207 11.3926C22.3583 11.6853 23.0392 12.1042 23.6328 12.6306C24.123 13.131 24.5518 13.6812 24.9192 14.2812C25.3622 14.9493 25.8625 15.7683 26.358 16.5936C26.728 17.2125 27.0948 17.8331 27.4363 18.4124L27.5649 18.6298C28.1048 19.5392 28.5622 20.309 28.8655 20.7788C28.9793 20.9537 29.0575 21.1494 29.0956 21.3545C29.1337 21.5597 29.131 21.7704 29.0876 21.9745C29.0443 22.1786 28.9611 22.3722 28.8429 22.5442C28.7247 22.7162 28.5737 22.8632 28.3986 22.9769C28.2236 23.0906 28.0278 23.1687 27.8225 23.2068C27.6172 23.2449 27.4064 23.2422 27.2022 23.1988C26.9979 23.1555 26.8042 23.0724 26.6321 22.9543C26.46 22.8361 26.3129 22.6853 26.1991 22.5103C25.8355 21.9485 25.286 21.0152 24.6936 20.0138L24.4729 19.6392L24.4713 19.6376C24.1966 19.1726 23.9155 18.6965 23.6376 18.2346C23.1484 17.4173 22.6752 16.6475 22.2718 16.0365C22.0628 15.7052 21.8365 15.3853 21.5937 15.0779L21.5334 15.0112C21.1846 14.6951 20.778 14.4494 20.336 14.2875C20.2181 14.2709 20.1025 14.2411 19.9913 14.1986C19.5816 14.2462 19.1894 14.397 18.8511 14.6335C18.6077 14.9255 18.447 15.2774 18.3859 15.6526C18.3247 16.0277 18.3653 16.4124 18.5033 16.7666L19.0067 17.703C19.6753 17.987 20.2978 18.3711 20.8521 18.8425C21.2809 19.2615 21.6514 19.726 21.9637 20.236C22.3068 20.7597 22.672 21.3787 23.0262 21.9945C23.239 22.3643 23.4486 22.7357 23.6503 23.0943L23.6614 23.1134L23.7249 23.2277C24.1902 24.0498 24.6063 24.7846 24.9461 25.3099C25.0643 25.4849 25.1464 25.6816 25.1876 25.8886C25.2288 26.0956 25.2282 26.3087 25.186 26.5155C25.1437 26.7223 25.0607 26.9186 24.9416 27.093C24.8225 27.2673 24.6698 27.4161 24.4925 27.5307C24.3152 27.6453 24.1167 27.7235 23.9088 27.7605C23.7009 27.7976 23.4877 27.7928 23.2817 27.7465C23.0756 27.7002 22.8809 27.6133 22.7088 27.4909C22.5368 27.3685 22.3909 27.213 22.2798 27.0335C21.7841 26.2409 21.3112 25.4343 20.8616 24.6148L20.2661 23.5673C19.9606 23.0242 19.6391 22.4901 19.3021 21.9659C19.181 21.7823 19.0544 21.6024 18.9226 21.4263C18.8654 21.3494 18.8033 21.2762 18.7368 21.2073C18.3836 20.9146 17.9858 20.6804 17.5584 20.5137C17.4419 20.4947 17.3279 20.4628 17.2185 20.4185C16.7963 20.4932 16.3963 20.6619 16.0481 20.9121C15.7949 21.2213 15.6254 21.5904 15.5559 21.9839C15.4864 22.3774 15.5192 22.7822 15.6511 23.1594L19.6594 29.9316L25.159 38.9114C26.636 40.8503 28.7707 42.1834 31.1619 42.6602M1.69982 8.04384L4.44879 9.88805C4.57282 9.97387 4.66785 10.0953 4.7213 10.2363C4.77475 10.3773 4.78411 10.5312 4.74813 10.6776C4.71215 10.824 4.63253 10.956 4.51981 11.0562C4.40709 11.1564 4.26658 11.22 4.11688 11.2387L0.827968 11.6672C0.709461 11.682 0.589141 11.6677 0.477368 11.6257C0.365595 11.5836 0.265719 11.5151 0.186339 11.4259C0.10696 11.3367 0.0504554 11.2296 0.021692 11.1138C-0.00707145 10.998 -0.00723203 10.8769 0.0212236 10.761L0.564347 8.48822C0.593875 8.37289 0.650426 8.26623 0.729332 8.17704C0.808239 8.08785 0.907239 8.0187 1.01816 7.97529C1.12908 7.93188 1.24874 7.91546 1.36727 7.92737C1.48579 7.93929 1.59978 7.97921 1.69982 8.04384Z" fill="#E93580"/>
</svg>
