<svg width="20" height="20" viewBox="0 0 20 20" fill="none" xmlns="http://www.w3.org/2000/svg">
<path d="M19.4715 14.1007L15.416 9.99976L18.836 6.57977C19.1878 6.22964 19.467 5.81344 19.6575 5.35508C19.8481 4.89672 19.9461 4.40524 19.9461 3.90886C19.9461 3.41248 19.8481 2.921 19.6575 2.46264C19.467 2.00428 19.1878 1.58808 18.836 1.23795C18.1268 0.531023 17.1664 0.134063 16.1651 0.134063C15.1638 0.134063 14.2033 0.531023 13.4941 1.23795L12.1473 2.56962L10.0136 4.70333L5.89755 0.541844C5.54141 0.194298 5.0635 -0.000244141 4.56588 -0.000244141C4.06826 -0.000244141 3.59035 0.194298 3.2342 0.541844L0.555723 3.22032C0.379567 3.39604 0.239806 3.60477 0.144446 3.83458C0.0490858 4.06439 0 4.31076 0 4.55957C0 4.80837 0.0490858 5.05474 0.144446 5.28455C0.239806 5.51436 0.379567 5.72309 0.555723 5.89881L4.7172 9.99976L4.38429 10.3327L3.03748 11.6643L0.389264 17.2029C0.217871 17.5566 0.160893 17.9548 0.226247 18.3424C0.291601 18.7299 0.476042 19.0875 0.753942 19.3654C1.03184 19.6433 1.3894 19.8277 1.77694 19.8931C2.16448 19.9584 2.56275 19.9014 2.91642 19.7301L8.39444 17.0818L9.13594 16.3403L9.72611 15.7502L10.0136 15.4021L14.0692 19.4577C14.4253 19.8052 14.9032 19.9998 15.4009 19.9998C15.8985 19.9998 16.3764 19.8052 16.7325 19.4577L19.411 16.7792C19.5912 16.6075 19.7357 16.4019 19.8363 16.1743C19.9369 15.9466 19.9916 15.7013 19.9972 15.4525C20.0028 15.2037 19.9593 14.9562 19.8691 14.7242C19.7789 14.4923 19.6438 14.2804 19.4715 14.1007ZM16.1575 1.99458C16.6604 1.99295 17.1439 2.18854 17.5043 2.53935C17.6805 2.71507 17.8202 2.9238 17.9156 3.15361C18.0109 3.38342 18.06 3.62979 18.06 3.8786C18.06 4.1274 18.0109 4.37377 17.9156 4.60358C17.8202 4.83339 17.6805 5.04212 17.5043 5.21784L14.8258 2.61502C15.1824 2.26785 15.6598 2.07256 16.1575 2.07024V1.99458ZM1.8874 4.552L4.56588 1.88865L5.80676 3.12953L4.49021 4.4612L5.82189 5.79288L7.15356 4.4612L8.66683 5.97447L6.04888 8.71348L1.8874 4.552ZM2.08412 18.0352L4.45995 13.1473L6.9871 15.6594L2.08412 18.0352ZM8.39444 14.4034L5.71596 11.7249L13.4941 3.94669L16.1575 6.61004L8.39444 14.4034ZM15.4614 18.1109L11.4058 14.0704L14.0843 11.392L15.4917 12.7993L14.16 14.131L15.4917 15.4778L16.8385 14.131L18.1399 15.4475L15.4614 18.1109Z" fill="#E93580"/>
</svg>
