<svg width="25" height="26" viewBox="0 0 25 26" fill="none" xmlns="http://www.w3.org/2000/svg">
<path d="M11.8444 20.6579C9.23804 18.1125 11.8444 15.5556 11.8444 15.5556L19.6754 7.90788L17.0625 5.36246L6.63165 15.5454C6.63165 15.5454 4.02524 18.0908 6.63165 20.6477L10.4031 24.3309C10.5778 24.5027 10.742 24.6631 10.8918 24.8082L11.8549 25.75L14.4626 23.2033L11.8444 20.6579Z" fill="white"/>
<path d="M22.2936 10.4546L17.069 15.5556C17.069 15.5556 14.4626 18.101 17.069 20.6579L24.9 13.0114L22.2936 10.4546Z" fill="white"/>
<path d="M6.62123 10.4546L9.22764 7.9028L14.4574 2.79542L11.851 0.25L4.01482 7.89771L1.4084 10.4495C1.4084 10.4495 -1.19801 12.9949 1.4084 15.5505L4.01482 18.0959C1.4084 15.5505 4.01482 12.9936 4.01482 12.9936L6.62123 10.4546Z" fill="white"/>
</svg>
