<svg width="32" height="26" viewBox="0 0 32 26" fill="none" xmlns="http://www.w3.org/2000/svg">
<path d="M1 4.66732C1 3.78326 1.35119 2.93542 1.97631 2.31029C2.60143 1.68517 3.44928 1.33398 4.33333 1.33398H27.6667C28.5507 1.33398 29.3986 1.68517 30.0237 2.31029C30.6488 2.93542 31 3.78326 31 4.66732V21.334C31 22.218 30.6488 23.0659 30.0237 23.691C29.3986 24.3161 28.5507 24.6673 27.6667 24.6673H4.33333C3.44928 24.6673 2.60143 24.3161 1.97631 23.691C1.35119 23.0659 1 22.218 1 21.334V4.66732Z" stroke="white" stroke-width="2" stroke-linecap="round" stroke-linejoin="round"/>
<path d="M1 4.66797L16 14.668L31 4.66797" stroke="white" stroke-width="2" stroke-linecap="round" stroke-linejoin="round"/>
</svg>
