<svg width="20" height="18" viewBox="0 0 20 18" fill="none" xmlns="http://www.w3.org/2000/svg">
<path d="M6 18C5.45 18 4.97933 17.8043 4.588 17.413C4.19667 17.0217 4.00067 16.5507 4 16V14H2C1.45 14 0.979333 13.8043 0.588 13.413C0.196667 13.0217 0.000666667 12.5507 0 12V8C0 7.15 0.291667 6.43767 0.875 5.863C1.45833 5.28833 2.16667 5.00067 3 5H17C17.85 5 18.5627 5.28767 19.138 5.863C19.7133 6.43833 20.0007 7.15067 20 8V12C20 12.55 19.8043 13.021 19.413 13.413C19.0217 13.805 18.5507 14.0007 18 14H16V16C16 16.55 15.8043 17.021 15.413 17.413C15.0217 17.805 14.5507 18.0007 14 18H6ZM2 12H4C4 11.45 4.196 10.9793 4.588 10.588C4.98 10.1967 5.45067 10.0007 6 10H14C14.55 10 15.021 10.196 15.413 10.588C15.805 10.98 16.0007 11.4507 16 12H18V8C18 7.71667 17.904 7.47933 17.712 7.288C17.52 7.09667 17.2827 7.00067 17 7H3C2.71667 7 2.47933 7.096 2.288 7.288C2.09667 7.48 2.00067 7.71733 2 8V12ZM14 5V2H6V5H4V2C4 1.45 4.196 0.979333 4.588 0.588C4.98 0.196667 5.45067 0.000666667 6 0H14C14.55 0 15.021 0.196 15.413 0.588C15.805 0.98 16.0007 1.45067 16 2V5H14ZM16 9.5C16.2833 9.5 16.521 9.404 16.713 9.212C16.905 9.02 17.0007 8.78267 17 8.5C16.9993 8.21733 16.9033 7.98 16.712 7.788C16.5207 7.596 16.2833 7.5 16 7.5C15.7167 7.5 15.4793 7.596 15.288 7.788C15.0967 7.98 15.0007 8.21733 15 8.5C14.9993 8.78267 15.0953 9.02033 15.288 9.213C15.4807 9.40567 15.718 9.50133 16 9.5ZM14 16V12H6V16H14Z" fill="#E93580"/>
</svg>
