<svg width="0" height="0" class="hidden">
  <symbol fill="none" xmlns="http://www.w3.org/2000/svg" viewBox="0 0 25 26" id="logo">
    <path d="M11.8444 20.6579C9.23804 18.1125 11.8444 15.5556 11.8444 15.5556L19.6754 7.90788L17.0625 5.36246L6.63165 15.5454C6.63165 15.5454 4.02524 18.0908 6.63165 20.6477L10.4031 24.3309C10.5778 24.5027 10.742 24.6631 10.8918 24.8082L11.8549 25.75L14.4626 23.2033L11.8444 20.6579Z" fill="white"></path>
    <path d="M22.2936 10.4546L17.069 15.5556C17.069 15.5556 14.4626 18.101 17.069 20.6579L24.9 13.0114L22.2936 10.4546Z" fill="white"></path>
    <path d="M6.62123 10.4546L9.22764 7.9028L14.4574 2.79542L11.851 0.25L4.01482 7.89771L1.4084 10.4495C1.4084 10.4495 -1.19801 12.9949 1.4084 15.5505L4.01482 18.0959C1.4084 15.5505 4.01482 12.9936 4.01482 12.9936L6.62123 10.4546Z" fill="white"></path>
  </symbol>
  <symbol fill="none" xmlns="http://www.w3.org/2000/svg" viewBox="0 0 32 26" id="mail">
    <path d="M1 4.66732C1 3.78326 1.35119 2.93542 1.97631 2.31029C2.60143 1.68517 3.44928 1.33398 4.33333 1.33398H27.6667C28.5507 1.33398 29.3986 1.68517 30.0237 2.31029C30.6488 2.93542 31 3.78326 31 4.66732V21.334C31 22.218 30.6488 23.0659 30.0237 23.691C29.3986 24.3161 28.5507 24.6673 27.6667 24.6673H4.33333C3.44928 24.6673 2.60143 24.3161 1.97631 23.691C1.35119 23.0659 1 22.218 1 21.334V4.66732Z" stroke="white" stroke-width="2" stroke-linecap="round" stroke-linejoin="round"></path>
    <path d="M1 4.66797L16 14.668L31 4.66797" stroke="white" stroke-width="2" stroke-linecap="round" stroke-linejoin="round"></path>
  </symbol>
  <symbol fill="none" xmlns="http://www.w3.org/2000/svg" viewBox="0 0 26 26" id="phone">
    <path d="M18.0388 16.4091L17.3942 17.0509C17.3942 17.0509 15.8599 18.5752 11.6737 14.413C7.48742 10.2509 9.02167 8.72654 9.02167 8.72654L9.42684 8.32137C10.4284 7.32687 10.5233 5.72887 9.64926 4.56154L7.86426 2.17729C6.78192 0.732289 4.69234 0.541039 3.45276 1.77354L1.22859 3.98354C0.615174 4.59554 0.204341 5.38604 0.253924 6.26437C0.381424 8.51262 1.39859 13.3477 7.07092 18.9889C13.0875 24.97 18.7329 25.208 21.0407 24.9927C21.7717 24.9247 22.4063 24.5535 22.9178 24.0435L24.9294 22.0432C26.2894 20.6931 25.9069 18.3769 24.1673 17.432L21.4614 15.96C20.3196 15.341 18.9313 15.5223 18.0388 16.4091Z" fill="white"></path>
  </symbol>
  <symbol fill="none" xmlns="http://www.w3.org/2000/svg" viewBox="0 0 20 18" id="printer">
    <path d="M6 18C5.45 18 4.97933 17.8043 4.588 17.413C4.19667 17.0217 4.00067 16.5507 4 16V14H2C1.45 14 0.979333 13.8043 0.588 13.413C0.196667 13.0217 0.000666667 12.5507 0 12V8C0 7.15 0.291667 6.43767 0.875 5.863C1.45833 5.28833 2.16667 5.00067 3 5H17C17.85 5 18.5627 5.28767 19.138 5.863C19.7133 6.43833 20.0007 7.15067 20 8V12C20 12.55 19.8043 13.021 19.413 13.413C19.0217 13.805 18.5507 14.0007 18 14H16V16C16 16.55 15.8043 17.021 15.413 17.413C15.0217 17.805 14.5507 18.0007 14 18H6ZM2 12H4C4 11.45 4.196 10.9793 4.588 10.588C4.98 10.1967 5.45067 10.0007 6 10H14C14.55 10 15.021 10.196 15.413 10.588C15.805 10.98 16.0007 11.4507 16 12H18V8C18 7.71667 17.904 7.47933 17.712 7.288C17.52 7.09667 17.2827 7.00067 17 7H3C2.71667 7 2.47933 7.096 2.288 7.288C2.09667 7.48 2.00067 7.71733 2 8V12ZM14 5V2H6V5H4V2C4 1.45 4.196 0.979333 4.588 0.588C4.98 0.196667 5.45067 0.000666667 6 0H14C14.55 0 15.021 0.196 15.413 0.588C15.805 0.98 16.0007 1.45067 16 2V5H14ZM16 9.5C16.2833 9.5 16.521 9.404 16.713 9.212C16.905 9.02 17.0007 8.78267 17 8.5C16.9993 8.21733 16.9033 7.98 16.712 7.788C16.5207 7.596 16.2833 7.5 16 7.5C15.7167 7.5 15.4793 7.596 15.288 7.788C15.0967 7.98 15.0007 8.21733 15 8.5C14.9993 8.78267 15.0953 9.02033 15.288 9.213C15.4807 9.40567 15.718 9.50133 16 9.5ZM14 16V12H6V16H14Z" fill="currentColor"></path>
  </symbol>
  <symbol fill="none" xmlns="http://www.w3.org/2000/svg" viewBox="0 0 16 20" id="report">
    <path d="M0 2C0 1.46957 0.210714 0.960859 0.585786 0.585786C0.960859 0.210714 1.46957 0 2 0H10C10.2652 5.66374e-05 10.5195 0.105451 10.707 0.293L15.707 5.293C15.8946 5.48049 15.9999 5.73481 16 6V18C16 18.5304 15.7893 19.0391 15.4142 19.4142C15.0391 19.7893 14.5304 20 14 20H2C1.46957 20 0.960859 19.7893 0.585786 19.4142C0.210714 19.0391 0 18.5304 0 18V2ZM13.586 6L10 2.414V6H13.586ZM8 2H2V18H14V8H9C8.73478 8 8.48043 7.89464 8.29289 7.70711C8.10536 7.51957 8 7.26522 8 7V2ZM4 11C4 10.7348 4.10536 10.4804 4.29289 10.2929C4.48043 10.1054 4.73478 10 5 10H11C11.2652 10 11.5196 10.1054 11.7071 10.2929C11.8946 10.4804 12 10.7348 12 11C12 11.2652 11.8946 11.5196 11.7071 11.7071C11.5196 11.8946 11.2652 12 11 12H5C4.73478 12 4.48043 11.8946 4.29289 11.7071C4.10536 11.5196 4 11.2652 4 11ZM4 15C4 14.7348 4.10536 14.4804 4.29289 14.2929C4.48043 14.1054 4.73478 14 5 14H11C11.2652 14 11.5196 14.1054 11.7071 14.2929C11.8946 14.4804 12 14.7348 12 15C12 15.2652 11.8946 15.5196 11.7071 15.7071C11.5196 15.8946 11.2652 16 11 16H5C4.73478 16 4.48043 15.8946 4.29289 15.7071C4.10536 15.5196 4 15.2652 4 15Z" fill="currentColor"></path>
  </symbol>
  <symbol fill="none" xmlns="http://www.w3.org/2000/svg" viewBox="0 0 18 18" id="settings">
    <path d="M13 12C14.306 12 15.418 12.835 15.83 14H17C17.2652 14 17.5196 14.1054 17.7071 14.2929C17.8946 14.4804 18 14.7348 18 15C18 15.2652 17.8946 15.5196 17.7071 15.7071C17.5196 15.8946 17.2652 16 17 16H15.83C15.6234 16.5855 15.2403 17.0926 14.7334 17.4512C14.2265 17.8099 13.6209 18.0025 13 18.0025C12.3791 18.0025 11.7735 17.8099 11.2666 17.4512C10.7597 17.0926 10.3766 16.5855 10.17 16H1C0.734784 16 0.48043 15.8946 0.292893 15.7071C0.105357 15.5196 0 15.2652 0 15C0 14.7348 0.105357 14.4804 0.292893 14.2929C0.48043 14.1054 0.734784 14 1 14H10.17C10.3769 13.4148 10.7602 12.9083 11.267 12.5501C11.7739 12.1919 12.3793 11.9997 13 12ZM5 6C5.58899 5.99992 6.16497 6.17322 6.65613 6.49829C7.14729 6.82336 7.5319 7.28582 7.762 7.828L7.829 8H17C17.2549 8.00028 17.5 8.09788 17.6854 8.27285C17.8707 8.44782 17.9822 8.68695 17.9972 8.94139C18.0121 9.19584 17.9293 9.44638 17.7657 9.64183C17.6021 9.83729 17.3701 9.9629 17.117 9.993L17 10H7.83C7.6284 10.5703 7.25917 11.0663 6.77073 11.4231C6.28229 11.7799 5.69744 11.9808 5.09285 11.9994C4.48827 12.018 3.89217 11.8534 3.38273 11.5273C2.87328 11.2012 2.47427 10.7288 2.238 10.172L2.17 10H1C0.74512 9.99972 0.499968 9.90212 0.314632 9.72715C0.129296 9.55218 0.017765 9.31305 0.00282788 9.05861C-0.0121092 8.80416 0.0706746 8.55362 0.234265 8.35817C0.397855 8.16271 0.629904 8.0371 0.883 8.007L1 8H2.17C2.37688 7.41484 2.76016 6.90826 3.26702 6.55006C3.77387 6.19186 4.37935 5.99968 5 6ZM13 4.12473e-07C14.306 4.12473e-07 15.418 0.835001 15.83 2H17C17.2652 2 17.5196 2.10536 17.7071 2.29289C17.8946 2.48043 18 2.73478 18 3C18 3.26522 17.8946 3.51957 17.7071 3.70711C17.5196 3.89464 17.2652 4 17 4H15.83C15.6234 4.58553 15.2403 5.09257 14.7334 5.45121C14.2265 5.80986 13.6209 6.00245 13 6.00245C12.3791 6.00245 11.7735 5.80986 11.2666 5.45121C10.7597 5.09257 10.3766 4.58553 10.17 4H1C0.734784 4 0.48043 3.89464 0.292893 3.70711C0.105357 3.51957 0 3.26522 0 3C0 2.73478 0.105357 2.48043 0.292893 2.29289C0.48043 2.10536 0.734784 2 1 2H10.17C10.3769 1.41484 10.7602 0.908257 11.267 0.550056C11.7739 0.191856 12.3793 -0.00032496 13 4.12473e-07Z" fill="currentColor"></path>
  </symbol>
  <symbol fill="none" xmlns="http://www.w3.org/2000/svg" viewBox="0 0 20 20" id="strange">
    <path fill-rule="evenodd" clip-rule="evenodd" d="M0.976311 0.976311C1.60143 0.351189 2.44928 0 3.33333 0C4.21739 0 5.06524 0.351189 5.69036 0.976311C6.04525 1.33121 6.31185 1.75789 6.47603 2.22222H13.524C13.6881 1.75788 13.9548 1.3312 14.3096 0.976311C14.9348 0.351189 15.7826 0 16.6667 0C17.5507 0 18.3986 0.351189 19.0237 0.976311C19.6488 1.60143 20 2.44928 20 3.33333C20 4.21739 19.6488 5.06524 19.0237 5.69036C18.6688 6.04525 18.2421 6.31185 17.7778 6.47603V13.524C18.2421 13.6881 18.6688 13.9548 19.0237 14.3096C19.6488 14.9348 20 15.7826 20 16.6667C20 17.5507 19.6488 18.3986 19.0237 19.0237C18.3986 19.6488 17.5507 20 16.6667 20C15.7826 20 14.9348 19.6488 14.3096 19.0237C13.9548 18.6688 13.6881 18.2421 13.524 17.7778H6.47603C6.31185 18.2421 6.04525 18.6688 5.69036 19.0237C5.06524 19.6488 4.21739 20 3.33333 20C2.44928 20 1.60143 19.6488 0.976311 19.0237C0.351189 18.3986 0 17.5507 0 16.6667C0 15.7826 0.351189 14.9348 0.976311 14.3096C1.3312 13.9548 1.75788 13.6881 2.22222 13.524V6.47603C1.75789 6.31185 1.33121 6.04525 0.976311 5.69036C0.351189 5.06524 0 4.21739 0 3.33333C0 2.44928 0.351189 1.60143 0.976311 0.976311ZM4.44444 6.47603V13.524C4.90878 13.6881 5.33546 13.9548 5.69036 14.3096C6.04525 14.6645 6.31185 15.0912 6.47603 15.5556H13.524C13.6881 15.0912 13.9548 14.6645 14.3096 14.3096C14.6645 13.9548 15.0912 13.6881 15.5556 13.524V6.47603C15.0912 6.31185 14.6645 6.04525 14.3096 5.69036C13.9548 5.33546 13.6881 4.90878 13.524 4.44444H6.47603C6.43686 4.55522 6.39187 4.66386 6.34123 4.76988L8.56345 6.9921C9.00788 6.77986 9.4981 6.66667 10 6.66667C10.8841 6.66667 11.7319 7.01786 12.357 7.64298C12.9821 8.2681 13.3333 9.11594 13.3333 10C13.3333 10.8841 12.9821 11.7319 12.357 12.357C11.7319 12.9821 10.8841 13.3333 10 13.3333C9.11594 13.3333 8.2681 12.9821 7.64298 12.357C7.01786 11.7319 6.66667 10.8841 6.66667 10C6.66667 9.4981 6.77986 9.00788 6.9921 8.56345L4.76988 6.34123C4.66386 6.39187 4.55522 6.43686 4.44444 6.47603ZM3.33333 2.22222C3.03865 2.22222 2.75603 2.33929 2.54766 2.54766C2.33929 2.75603 2.22222 3.03865 2.22222 3.33333C2.22222 3.62802 2.33929 3.91063 2.54766 4.11901C2.75603 4.32738 3.03865 4.44444 3.33333 4.44444C3.62802 4.44444 3.91063 4.32738 4.11901 4.11901C4.32738 3.91063 4.44444 3.62802 4.44444 3.33333C4.44444 3.03865 4.32738 2.75603 4.11901 2.54766C3.91063 2.33929 3.62802 2.22222 3.33333 2.22222ZM16.6667 2.22222C16.372 2.22222 16.0894 2.33929 15.881 2.54766C15.6726 2.75603 15.5556 3.03865 15.5556 3.33333C15.5556 3.62802 15.6726 3.91063 15.881 4.11901C16.0894 4.32738 16.372 4.44444 16.6667 4.44444C16.9614 4.44444 17.244 4.32738 17.4523 4.11901C17.6607 3.91063 17.7778 3.62802 17.7778 3.33333C17.7778 3.03865 17.6607 2.75603 17.4523 2.54766C17.244 2.33929 16.9614 2.22222 16.6667 2.22222ZM10 8.88889C9.70532 8.88889 9.4227 9.00595 9.21433 9.21433C9.00595 9.4227 8.88889 9.70532 8.88889 10C8.88889 10.2947 9.00595 10.5773 9.21433 10.7857C9.4227 10.994 9.70532 11.1111 10 11.1111C10.2947 11.1111 10.5773 10.994 10.7857 10.7857C10.994 10.5773 11.1111 10.2947 11.1111 10C11.1111 9.70532 10.994 9.4227 10.7857 9.21433C10.5773 9.00595 10.2947 8.88889 10 8.88889ZM3.33333 15.5556C3.03865 15.5556 2.75603 15.6726 2.54766 15.881C2.33929 16.0894 2.22222 16.372 2.22222 16.6667C2.22222 16.9614 2.33929 17.244 2.54766 17.4523C2.75603 17.6607 3.03865 17.7778 3.33333 17.7778C3.62802 17.7778 3.91063 17.6607 4.11901 17.4523C4.32738 17.244 4.44444 16.9614 4.44444 16.6667C4.44444 16.372 4.32738 16.0894 4.11901 15.881C3.91063 15.6726 3.62802 15.5556 3.33333 15.5556ZM16.6667 15.5556C16.372 15.5556 16.0894 15.6726 15.881 15.881C15.6726 16.0894 15.5556 16.372 15.5556 16.6667C15.5556 16.9614 15.6726 17.244 15.881 17.4523C16.0894 17.6607 16.372 17.7778 16.6667 17.7778C16.9614 17.7778 17.244 17.6607 17.4523 17.4523C17.6607 17.244 17.7778 16.9614 17.7778 16.6667C17.7778 16.372 17.6607 16.0894 17.4523 15.881C17.244 15.6726 16.9614 15.5556 16.6667 15.5556Z" fill="currentColor"></path>
  </symbol>
  <symbol fill="none" xmlns="http://www.w3.org/2000/svg" viewBox="0 0 20 20" id="table">
    <path d="M17.5 0H2.5C1.83696 0 1.20107 0.263392 0.732233 0.732233C0.263392 1.20107 0 1.83696 0 2.5V17.5C0 18.163 0.263392 18.7989 0.732233 19.2678C1.20107 19.7366 1.83696 20 2.5 20H17.5C18.163 20 18.7989 19.7366 19.2678 19.2678C19.7366 18.7989 20 18.163 20 17.5V2.5C20 1.83696 19.7366 1.20107 19.2678 0.732233C18.7989 0.263392 18.163 0 17.5 0ZM11.25 17.5H2.5V8.75H11.25V17.5ZM17.5 17.5H13.75V8.75H17.5V17.5ZM17.5 6.25H2.5V2.5H17.5V6.25Z" fill="currentColor"></path>
  </symbol>
  <symbol fill="none" xmlns="http://www.w3.org/2000/svg" viewBox="0 0 51 50" id="technologies">
    <path fill-rule="evenodd" clip-rule="evenodd" d="M25.75 3.48837C24.7867 3.48837 24.0058 4.26927 24.0058 5.23256C24.0058 6.19585 24.7867 6.97674 25.75 6.97674C26.7133 6.97674 27.4942 6.19585 27.4942 5.23256C27.4942 4.26927 26.7133 3.48837 25.75 3.48837ZM20.642 4.09229C21.1624 1.75077 23.2518 0 25.75 0C28.2482 0 30.3376 1.75077 30.858 4.09229L42.7992 10.0629C43.5914 9.58032 44.522 9.30233 45.5174 9.30233C48.4073 9.30233 50.75 11.645 50.75 14.5349C50.75 16.8132 49.2939 18.7514 47.2616 19.4697V30.5303C49.2939 31.2486 50.75 33.1868 50.75 35.4651C50.75 38.355 48.4073 40.6977 45.5174 40.6977C44.3173 40.6977 43.2114 40.2936 42.3286 39.6141L30.8671 45.8658C30.3624 48.2283 28.2631 50 25.75 50C23.2518 50 21.1624 48.2492 20.642 45.9077L8.70082 39.9371C7.90859 40.4197 6.97804 40.6977 5.98256 40.6977C3.0927 40.6977 0.75 38.355 0.75 35.4651C0.75 33.1868 2.20606 31.2486 4.23837 30.5303V19.4697C2.20606 18.7514 0.75 16.8132 0.75 14.5349C0.75 11.645 3.0927 9.30233 5.98256 9.30233C6.97804 9.30233 7.90859 9.58032 8.70083 10.0629L20.642 4.09229ZM21.1542 7.73632L10.9363 12.8453C11.1171 13.3753 11.2151 13.9437 11.2151 14.5349C11.2151 14.593 11.2142 14.6508 11.2123 14.7084L20.877 20.5073L24.0058 18.7474V10.1674C22.7826 9.73502 21.7681 8.86072 21.1542 7.73632ZM27.4942 10.1674V18.7474L30.623 20.5073L40.2877 14.7084C40.2858 14.6508 40.2849 14.593 40.2849 14.5349C40.2849 13.9437 40.3829 13.3753 40.5637 12.8453L30.3458 7.73632C29.7319 8.86072 28.7174 9.73502 27.4942 10.1674ZM43.9429 13.7836C43.8342 14.0111 43.7733 14.2659 43.7733 14.5349C43.7733 15.4982 44.5542 16.2791 45.5174 16.2791C46.4807 16.2791 47.2616 15.4982 47.2616 14.5349C47.2616 13.5716 46.4807 12.7907 45.5174 12.7907C45.2484 12.7907 44.9936 12.8516 44.766 12.9604C44.7614 12.9701 44.7567 12.9797 44.7519 12.9893C44.5711 13.3509 44.2817 13.6223 43.9429 13.7836ZM41.5915 17.9943L32.1453 23.662V26.338L41.5915 32.0057C42.1753 31.3437 42.924 30.8305 43.7733 30.5303V19.4697C42.924 19.1695 42.1753 18.6563 41.5915 17.9943ZM40.2877 35.2916L30.623 29.4927L27.4942 31.2526V39.8326C28.6931 40.2564 29.6915 41.1047 30.3087 42.1969L40.4262 36.6782C40.3338 36.2889 40.2849 35.8827 40.2849 35.4651C40.2849 35.407 40.2858 35.3492 40.2877 35.2916ZM24.0058 39.8326V31.2526L20.877 29.4927L11.2123 35.2916C11.2142 35.3492 11.2151 35.407 11.2151 35.4651C11.2151 36.0563 11.1171 36.6247 10.9363 37.1547L21.1542 42.2637C21.7681 41.1393 22.7826 40.265 24.0058 39.8326ZM7.55709 36.2164C7.66585 35.9889 7.72674 35.7341 7.72674 35.4651C7.72674 34.5018 6.94585 33.7209 5.98256 33.7209C5.01927 33.7209 4.23837 34.5018 4.23837 35.4651C4.23837 36.4284 5.01927 37.2093 5.98256 37.2093C6.2516 37.2093 6.50641 37.1484 6.73396 37.0396C6.73857 37.0299 6.74328 37.0203 6.74809 37.0107C6.92889 36.6491 7.21834 36.3777 7.55709 36.2164ZM9.9085 32.0057L19.3547 26.338V23.662L9.9085 17.9943C9.32468 18.6563 8.57603 19.1695 7.72674 19.4697V30.5303C8.57603 30.8305 9.32468 31.3437 9.9085 32.0057ZM22.843 23.4038V26.5962L25.2848 27.9697C25.4329 27.9288 25.5889 27.907 25.75 27.907C25.9111 27.907 26.0671 27.9288 26.2152 27.9697L28.657 26.5962V23.4038L26.2152 22.0303C26.0671 22.0712 25.9111 22.093 25.75 22.093C25.5889 22.093 25.4329 22.0712 25.2848 22.0303L22.843 23.4038ZM6.73396 12.9604C6.73857 12.9701 6.74328 12.9797 6.74809 12.9893C6.92889 13.3509 7.21834 13.6223 7.55709 13.7836C7.66585 14.0111 7.72674 14.2659 7.72674 14.5349C7.72674 15.4982 6.94585 16.2791 5.98256 16.2791C5.01927 16.2791 4.23837 15.4982 4.23837 14.5349C4.23837 13.5716 5.01927 12.7907 5.98256 12.7907C6.2516 12.7907 6.50641 12.8516 6.73396 12.9604ZM45.5174 33.7209C44.5542 33.7209 43.7733 34.5018 43.7733 35.4651C43.7733 36.4284 44.5542 37.2093 45.5174 37.2093C46.4807 37.2093 47.2616 36.4284 47.2616 35.4651C47.2616 34.5018 46.4807 33.7209 45.5174 33.7209ZM25.75 43.0233C24.7867 43.0233 24.0058 43.8042 24.0058 44.7674C24.0058 45.7307 24.7867 46.5116 25.75 46.5116C26.7133 46.5116 27.4942 45.7307 27.4942 44.7674C27.4942 43.8042 26.7133 43.0233 25.75 43.0233Z" fill="currentColor"></path>
  </symbol>
  <symbol fill="none" xmlns="http://www.w3.org/2000/svg" viewBox="0 0 35 29" id="telegram">
    <path fill-rule="evenodd" clip-rule="evenodd" d="M30.9616 0.383275C31.3735 0.209927 31.8243 0.15014 32.2671 0.210137C32.7099 0.270134 33.1285 0.447722 33.4794 0.724417C33.8303 1.00111 34.1006 1.3668 34.2622 1.78341C34.4238 2.20003 34.4708 2.65234 34.3983 3.09328L30.6183 26.0216C30.2516 28.2333 27.825 29.5016 25.7966 28.3999C24.1 27.4783 21.58 26.0583 19.3133 24.5766C18.18 23.8349 14.7083 21.4599 15.135 19.7699C15.5016 18.3249 21.335 12.8949 24.6683 9.66661C25.9766 8.39828 25.38 7.66661 23.835 8.83328C19.9983 11.7299 13.8383 16.1349 11.8016 17.3749C10.005 18.4683 9.06828 18.6549 7.94828 18.4683C5.90495 18.1283 4.00995 17.6016 2.46328 16.9599C0.373285 16.0933 0.474952 13.2199 2.46162 12.3833L30.9616 0.383275Z" fill="currentColor"></path>
  </symbol>
  <symbol fill="none" xmlns="http://www.w3.org/2000/svg" viewBox="0 0 31 30" id="vk">
    <path d="M5.21169 4.71238C4.63836 5.29405 4.26169 6.11071 4.05169 7.66238C3.83669 9.27071 3.83502 11.4007 3.83502 14.4657V15.5324C3.83502 18.5924 3.83669 20.7207 4.05169 22.3274C4.26002 23.8807 4.63836 24.7024 5.21336 25.289C5.79669 25.8607 6.61336 26.239 8.16336 26.4474C9.77169 26.6624 11.9017 26.6657 14.9667 26.6657H16.0334C19.0934 26.6657 21.2217 26.6624 22.83 26.4474C24.3817 26.239 25.2034 25.8607 25.79 25.2857C26.3617 24.704 26.74 23.8874 26.9484 22.3357C27.165 20.7274 27.1667 18.5974 27.1667 15.5324V14.4657C27.1667 11.4057 27.1634 9.27738 26.95 7.67071C26.74 6.11738 26.3617 5.29571 25.7867 4.70905C25.205 4.13738 24.3884 3.75905 22.8367 3.55071C21.2284 3.33571 19.0984 3.33238 16.0334 3.33238H14.9667C11.9067 3.33238 9.77836 3.33571 8.17169 3.55071C6.61836 3.75905 5.79836 4.13738 5.21169 4.71238ZM14.9667 -0.000954045H16.0334C18.4417 -0.000954045 20.8867 -0.0726208 23.2784 0.247379C25.205 0.505713 26.8367 1.05738 28.14 2.34738L28.1534 2.36238C29.4417 3.66905 29.995 5.30071 30.2534 7.22905C30.5717 9.61738 30.5 12.0607 30.5 14.4657V15.5324C30.5 17.939 30.5734 20.384 30.2517 22.7774C29.995 24.704 29.4417 26.3357 28.1517 27.639L28.1367 27.6524C26.8317 28.9407 25.2 29.4924 23.27 29.7524C20.8817 30.0707 18.4384 29.999 16.0334 29.999H14.9667C12.56 29.999 10.115 30.0707 7.72336 29.7507C5.79502 29.4924 4.16336 28.9407 2.86169 27.6507L2.84669 27.6357C1.56002 26.329 1.00669 24.6974 0.748356 22.769C0.428356 20.3824 0.500023 17.939 0.500023 15.5324V14.4657C0.500023 12.059 0.428356 9.61405 0.750023 7.22071C1.00669 5.29405 1.56002 3.66238 2.85002 2.35905L2.86336 2.34571C4.17002 1.05738 5.80169 0.505713 7.73002 0.245713C10.12 -0.070954 12.5634 -0.000954045 14.9667 -0.000954045ZM5.56002 9.12905C5.72002 16.929 9.62002 21.609 16.46 21.609H16.86V17.149C19.37 17.399 21.27 19.239 22.03 21.609H25.58C25.2161 20.2622 24.5707 19.0079 23.6864 17.9288C22.8021 16.8498 21.6991 15.9705 20.45 15.349C21.569 14.6674 22.5355 13.7623 23.2891 12.6904C24.0427 11.6185 24.5673 10.4027 24.83 9.11905H21.61C20.91 11.599 18.83 13.849 16.86 14.059V9.12905H13.63V17.769C11.63 17.269 9.11002 14.849 9.00002 9.12905H5.56002Z" fill="currentColor"></path>
  </symbol>
  <symbol fill="none" xmlns="http://www.w3.org/2000/svg" viewBox="0 0 20 20" id="aim">
    <path fill-rule="evenodd" clip-rule="evenodd" d="M16.3809 0.54278C16.3504 0.419841 16.2878 0.307211 16.1995 0.216412C16.1112 0.125613 16.0003 0.0599061 15.8783 0.0260122C15.7562 -0.0078817 15.6274 -0.00874542 15.5049 0.0235094C15.3824 0.0557642 15.2706 0.11998 15.1811 0.209586L12.3211 3.06962C12.2339 3.15703 12.1708 3.26553 12.1379 3.38457C12.1051 3.50361 12.1037 3.62912 12.1338 3.74888L12.6486 5.81382L12.6285 5.83384L9.20938 9.25301C9.01993 9.45632 8.91679 9.72523 8.92169 10.0031C8.92659 10.2809 9.03915 10.546 9.23566 10.7425C9.43216 10.939 9.69726 11.0516 9.97512 11.0565C10.253 11.0614 10.5219 10.9583 10.7252 10.7688L14.1472 7.35109L14.1672 7.32964L16.2308 7.84587C16.3505 7.87596 16.476 7.87452 16.5951 7.84169C16.7141 7.80886 16.8226 7.74576 16.91 7.65854L19.77 4.79851C19.86 4.70902 19.9246 4.59719 19.957 4.47451C19.9895 4.35183 19.9887 4.22272 19.9548 4.10044C19.9209 3.97815 19.8551 3.86709 19.764 3.77867C19.673 3.69025 19.5601 3.62765 19.4369 3.5973L16.993 2.98811L16.3809 0.54278ZM10.4206 1.08619C10.4402 1.36986 10.3464 1.64972 10.1598 1.86425C9.97316 2.07878 9.70897 2.21041 9.42531 2.2302C7.93122 2.33374 6.49827 2.86403 5.29671 3.75805C4.09515 4.65207 3.17551 5.87224 2.64705 7.27357C2.11859 8.67491 2.00353 10.1985 2.31555 11.6633C2.62756 13.1281 3.35354 14.4726 4.40721 15.5369C5.46087 16.6012 6.79794 17.3407 8.25953 17.6674C9.72112 17.9942 11.2458 17.8945 12.6524 17.3801C14.059 16.8658 15.2883 15.9585 16.1944 14.766C17.1005 13.5735 17.6452 12.146 17.7637 10.653C17.7863 10.3693 17.9206 10.1062 18.1372 9.92156C18.3537 9.73692 18.6348 9.64586 18.9185 9.66843C19.2022 9.691 19.4653 9.82533 19.6499 10.0419C19.8345 10.2584 19.9256 10.5395 19.903 10.8232C19.7517 12.7254 19.0575 14.5442 17.9029 16.0635C16.7483 17.5828 15.1818 18.7387 13.3896 19.394C11.5974 20.0492 9.65471 20.1761 7.79244 19.7598C5.93018 19.3434 4.22657 18.4012 2.88403 17.0451C1.54149 15.689 0.616451 13.9761 0.218807 12.1097C-0.178836 10.2434 -0.0323649 8.30208 0.640819 6.51652C1.314 4.73097 2.4856 3.17618 4.01642 2.03689C5.54724 0.897596 7.37293 0.221687 9.27659 0.0894648C9.56026 0.0698182 9.84012 0.163626 10.0546 0.350265C10.2692 0.536903 10.4008 0.802525 10.4206 1.08619ZM9.45963 5.80381C9.51102 5.93498 9.53606 6.07499 9.53333 6.21584C9.53059 6.35669 9.50014 6.49562 9.4437 6.6247C9.38726 6.75378 9.30594 6.87047 9.2044 6.96812C9.10285 7.06576 8.98306 7.14245 8.85187 7.19379C8.38289 7.37775 7.96714 7.67568 7.64221 8.06066C7.31727 8.44563 7.0934 8.90551 6.99081 9.39873C6.88823 9.89195 6.91017 10.403 7.05466 10.8856C7.19915 11.3682 7.46162 11.8072 7.81836 12.1629C8.1751 12.5186 8.61486 12.7798 9.09789 12.9228C9.58092 13.0659 10.092 13.0864 10.5849 12.9824C11.0778 12.8783 11.537 12.6531 11.9211 12.3271C12.3051 12.001 12.6018 11.5844 12.7844 11.1149C12.8355 10.9836 12.9119 10.8637 13.0094 10.762C13.1068 10.6602 13.2233 10.5787 13.3522 10.522C13.4812 10.4653 13.62 10.4346 13.7608 10.4315C13.9017 10.4285 14.0417 10.4532 14.173 10.5043C14.3042 10.5554 14.4241 10.6318 14.5259 10.7292C14.6276 10.8266 14.7091 10.9431 14.7658 11.0721C14.8225 11.201 14.8533 11.3399 14.8563 11.4807C14.8594 11.6215 14.8347 11.7616 14.7836 11.8928C14.4717 12.6946 13.9649 13.406 13.309 13.9627C12.6531 14.5195 11.8688 14.904 11.027 15.0814C10.1852 15.2589 9.31248 15.2238 8.48765 14.9793C7.66283 14.7348 6.91196 14.2885 6.30291 13.6809C5.69387 13.0733 5.24587 12.3235 4.9994 11.4992C4.75293 10.675 4.71577 9.80228 4.89128 8.96006C5.06679 8.11785 5.44944 7.33265 6.00462 6.67547C6.55981 6.01828 7.27003 5.50982 8.07108 5.19605C8.33582 5.09272 8.63076 5.09868 8.8911 5.21263C9.15145 5.32658 9.35593 5.53921 9.45963 5.80381Z" fill="currentColor"></path>
  </symbol>
  <symbol viewBox="0 0 20 20" fill="none" xmlns="http://www.w3.org/2000/svg" id="calendar">
    <path fill-rule="evenodd" clip-rule="evenodd" d="M4 2H16C17.0609 2 18.0783 2.42143 18.8284 3.17157C19.5786 3.92172 20 4.93913 20 6V16C20 17.0609 19.5786 18.0783 18.8284 18.8284C18.0783 19.5786 17.0609 20 16 20H4C2.93913 20 1.92172 19.5786 1.17157 18.8284C0.421427 18.0783 0 17.0609 0 16V6C0 4.93913 0.421427 3.92172 1.17157 3.17157C1.92172 2.42143 2.93913 2 4 2ZM4 4C3.46957 4 2.96086 4.21071 2.58579 4.58579C2.21071 4.96086 2 5.46957 2 6V16C2 16.5304 2.21071 17.0391 2.58579 17.4142C2.96086 17.7893 3.46957 18 4 18H16C16.5304 18 17.0391 17.7893 17.4142 17.4142C17.7893 17.0391 18 16.5304 18 16V6C18 5.46957 17.7893 4.96086 17.4142 4.58579C17.0391 4.21071 16.5304 4 16 4H4Z" fill="currentColor"/>
    <path fill-rule="evenodd" clip-rule="evenodd" d="M1 8C1 7.73478 1.10536 7.48043 1.29289 7.29289C1.48043 7.10536 1.73478 7 2 7H18C18.2652 7 18.5196 7.10536 18.7071 7.29289C18.8946 7.48043 19 7.73478 19 8C19 8.26522 18.8946 8.51957 18.7071 8.70711C18.5196 8.89464 18.2652 9 18 9H2C1.73478 9 1.48043 8.89464 1.29289 8.70711C1.10536 8.51957 1 8.26522 1 8ZM6 0C6.26522 0 6.51957 0.105357 6.70711 0.292893C6.89464 0.48043 7 0.734784 7 1V5C7 5.26522 6.89464 5.51957 6.70711 5.70711C6.51957 5.89464 6.26522 6 6 6C5.73478 6 5.48043 5.89464 5.29289 5.70711C5.10536 5.51957 5 5.26522 5 5V1C5 0.734784 5.10536 0.48043 5.29289 0.292893C5.48043 0.105357 5.73478 0 6 0ZM14 0C14.2652 0 14.5196 0.105357 14.7071 0.292893C14.8946 0.48043 15 0.734784 15 1V5C15 5.26522 14.8946 5.51957 14.7071 5.70711C14.5196 5.89464 14.2652 6 14 6C13.7348 6 13.4804 5.89464 13.2929 5.70711C13.1054 5.51957 13 5.26522 13 5V1C13 0.734784 13.1054 0.48043 13.2929 0.292893C13.4804 0.105357 13.7348 0 14 0Z" fill="currentColor"/>
    <path d="M6 11C6 11.2652 5.89464 11.5196 5.70711 11.7071C5.51957 11.8946 5.26522 12 5 12C4.73478 12 4.48043 11.8946 4.29289 11.7071C4.10536 11.5196 4 11.2652 4 11C4 10.7348 4.10536 10.4804 4.29289 10.2929C4.48043 10.1054 4.73478 10 5 10C5.26522 10 5.51957 10.1054 5.70711 10.2929C5.89464 10.4804 6 10.7348 6 11ZM6 15C6 15.2652 5.89464 15.5196 5.70711 15.7071C5.51957 15.8946 5.26522 16 5 16C4.73478 16 4.48043 15.8946 4.29289 15.7071C4.10536 15.5196 4 15.2652 4 15C4 14.7348 4.10536 14.4804 4.29289 14.2929C4.48043 14.1054 4.73478 14 5 14C5.26522 14 5.51957 14.1054 5.70711 14.2929C5.89464 14.4804 6 14.7348 6 15ZM11 11C11 11.2652 10.8946 11.5196 10.7071 11.7071C10.5196 11.8946 10.2652 12 10 12C9.73478 12 9.48043 11.8946 9.29289 11.7071C9.10536 11.5196 9 11.2652 9 11C9 10.7348 9.10536 10.4804 9.29289 10.2929C9.48043 10.1054 9.73478 10 10 10C10.2652 10 10.5196 10.1054 10.7071 10.2929C10.8946 10.4804 11 10.7348 11 11ZM11 15C11 15.2652 10.8946 15.5196 10.7071 15.7071C10.5196 15.8946 10.2652 16 10 16C9.73478 16 9.48043 15.8946 9.29289 15.7071C9.10536 15.5196 9 15.2652 9 15C9 14.7348 9.10536 14.4804 9.29289 14.2929C9.48043 14.1054 9.73478 14 10 14C10.2652 14 10.5196 14.1054 10.7071 14.2929C10.8946 14.4804 11 14.7348 11 15ZM16 11C16 11.2652 15.8946 11.5196 15.7071 11.7071C15.5196 11.8946 15.2652 12 15 12C14.7348 12 14.4804 11.8946 14.2929 11.7071C14.1054 11.5196 14 11.2652 14 11C14 10.7348 14.1054 10.4804 14.2929 10.2929C14.4804 10.1054 14.7348 10 15 10C15.2652 10 15.5196 10.1054 15.7071 10.2929C15.8946 10.4804 16 10.7348 16 11ZM16 15C16 15.2652 15.8946 15.5196 15.7071 15.7071C15.5196 15.8946 15.2652 16 15 16C14.7348 16 14.4804 15.8946 14.2929 15.7071C14.1054 15.5196 14 15.2652 14 15C14 14.7348 14.1054 14.4804 14.2929 14.2929C14.4804 14.1054 14.7348 14 15 14C15.2652 14 15.5196 14.1054 15.7071 14.2929C15.8946 14.4804 16 14.7348 16 15Z" fill="currentColor"/>
  </symbol>
  <symbol viewBox="0 0 22 15" fill="none" xmlns="http://www.w3.org/2000/svg" id="eye">
    <path d="M11 4.5C11.7956 4.5 12.5587 4.81607 13.1213 5.37868C13.6839 5.94129 14 6.70435 14 7.5C14 8.29565 13.6839 9.05871 13.1213 9.62132C12.5587 10.1839 11.7956 10.5 11 10.5C10.2044 10.5 9.44129 10.1839 8.87868 9.62132C8.31607 9.05871 8 8.29565 8 7.5C8 6.70435 8.31607 5.94129 8.87868 5.37868C9.44129 4.81607 10.2044 4.5 11 4.5ZM11 0C16 0 20.27 3.11 22 7.5C20.27 11.89 16 15 11 15C6 15 1.73 11.89 0 7.5C1.73 3.11 6 0 11 0ZM2.18 7.5C2.98825 9.15031 4.24331 10.5407 5.80248 11.5133C7.36165 12.4858 9.1624 13.0013 11 13.0013C12.8376 13.0013 14.6383 12.4858 16.1975 11.5133C17.7567 10.5407 19.0117 9.15031 19.82 7.5C19.0117 5.84969 17.7567 4.45925 16.1975 3.48675C14.6383 2.51424 12.8376 1.99868 11 1.99868C9.1624 1.99868 7.36165 2.51424 5.80248 3.48675C4.24331 4.45925 2.98825 5.84969 2.18 7.5Z" fill="white"/>
  </symbol>
  <symbol viewBox="0 0 20 20" fill="none" xmlns="http://www.w3.org/2000/svg" id="time">
    <path d="M10 0C15.523 0 20 4.477 20 10C20 15.523 15.523 20 10 20C4.477 20 0 15.523 0 10C0 4.477 4.477 0 10 0ZM10 2C7.87827 2 5.84344 2.84285 4.34315 4.34315C2.84285 5.84344 2 7.87827 2 10C2 12.1217 2.84285 14.1566 4.34315 15.6569C5.84344 17.1571 7.87827 18 10 18C12.1217 18 14.1566 17.1571 15.6569 15.6569C17.1571 14.1566 18 12.1217 18 10C18 7.87827 17.1571 5.84344 15.6569 4.34315C14.1566 2.84285 12.1217 2 10 2ZM10 4C10.2449 4.00003 10.4813 4.08996 10.6644 4.25272C10.8474 4.41547 10.9643 4.63975 10.993 4.883L11 5V9.586L13.707 12.293C13.8863 12.473 13.9905 12.7144 13.9982 12.9684C14.006 13.2223 13.9168 13.4697 13.7488 13.6603C13.5807 13.8508 13.3464 13.9703 13.0935 13.9944C12.8406 14.0185 12.588 13.9454 12.387 13.79L12.293 13.707L9.293 10.707C9.13758 10.5514 9.03776 10.349 9.009 10.131L9 10V5C9 4.73478 9.10536 4.48043 9.29289 4.29289C9.48043 4.10536 9.73478 4 10 4Z" fill="white"/>
  </symbol>
  <symbol viewBox="0 0 18 20" fill="none" xmlns="http://www.w3.org/2000/svg" id="fire">
    <path d="M5.46829 6.68671L5.46629 6.68761L5.46329 6.68942L5.46829 6.68671ZM15.4223 6.51763C15.353 6.4567 15.2758 6.40358 15.1923 6.3594C15.0745 6.29667 14.9437 6.25646 14.808 6.24126C14.6722 6.22606 14.5345 6.23618 14.4033 6.27101C14.2721 6.30584 14.1502 6.36463 14.0451 6.44375C13.94 6.52287 13.854 6.62064 13.7923 6.73101C13.4475 7.34463 12.9725 7.89087 12.3943 8.3386C12.4828 7.8879 12.5277 7.43107 12.5283 6.97332C12.5306 5.58098 12.1246 4.21297 11.3517 3.00871C10.5788 1.80446 9.46651 0.807013 8.1283 0.118034C7.98087 0.0422922 7.81455 0.00169246 7.64499 5.17813e-05C7.47542 -0.0015889 7.30818 0.0357833 7.15899 0.108655C7.00979 0.181527 6.88354 0.287505 6.79211 0.416627C6.70067 0.545748 6.64706 0.693771 6.6363 0.846782C6.58014 1.70398 6.33219 2.54195 5.90745 3.30999C5.48272 4.07804 4.89004 4.76017 4.16528 5.31511L3.93528 5.48418C3.17675 5.94536 2.50546 6.51415 1.94727 7.16862C1.07954 8.15696 0.478454 9.31452 0.191679 10.5495C-0.0950952 11.7844 -0.0596663 13.0628 0.295156 14.2832C0.649979 15.5037 1.31443 16.6325 2.23582 17.5803C3.15721 18.5282 4.31018 19.2688 5.60329 19.7436C5.75511 19.7995 5.91979 19.8207 6.08284 19.8055C6.24589 19.7903 6.40231 19.7391 6.53833 19.6564C6.67435 19.5737 6.7858 19.4621 6.86287 19.3313C6.93994 19.2005 6.98026 19.0545 6.9803 18.9063C6.98027 18.8105 6.96339 18.7153 6.9303 18.6242C6.70709 17.8638 6.64266 17.0724 6.7403 16.2906C7.68652 17.9043 9.20568 19.1833 11.0533 19.9217C11.2788 20.0126 11.5335 20.0248 11.7683 19.9561C13.2278 19.5301 14.5426 18.7738 15.5878 17.759C16.6329 16.7442 17.3738 15.5047 17.7399 14.1581C18.106 12.8116 18.0853 11.4027 17.6797 10.0655C17.2741 8.7282 16.497 7.50691 15.4223 6.51763ZM11.5173 18.1188C10.6455 17.7196 9.87634 17.1589 9.26004 16.4732C8.64374 15.7874 8.19407 14.992 7.9403 14.1387C7.86283 13.8514 7.80274 13.5604 7.7603 13.2671C7.73185 13.0804 7.63953 12.9063 7.49626 12.7693C7.353 12.6323 7.16595 12.5393 6.9613 12.5031C6.89836 12.4922 6.83439 12.4867 6.7703 12.4869C6.59459 12.4867 6.42195 12.5284 6.26974 12.6078C6.11754 12.6871 5.99114 12.8013 5.90329 12.9389C5.07378 14.233 4.65671 15.7095 4.69829 17.2047C3.96844 16.6918 3.35845 16.053 2.90369 15.3253C2.44893 14.5977 2.15843 13.7956 2.04905 12.9657C1.93966 12.1358 2.01355 11.2945 2.26644 10.4906C2.51933 9.6867 2.94619 8.93618 3.52228 8.28254C3.9603 7.76933 4.48788 7.32407 5.08429 6.96428C5.11013 6.94877 5.13516 6.93217 5.15929 6.91455C5.15929 6.91455 5.45529 6.69304 5.46529 6.68852C6.89039 5.59897 7.90414 4.13466 8.3653 2.49957C9.45474 3.41039 10.1811 4.62095 10.4315 5.94328C10.682 7.26561 10.4425 8.62571 9.75031 9.81237C9.65871 9.97075 9.62108 10.1501 9.64218 10.3278C9.66328 10.5056 9.74217 10.6736 9.86887 10.8108C9.99557 10.948 10.1644 11.0482 10.354 11.0987C10.5437 11.1492 10.7456 11.1477 10.9343 11.0945C12.4659 10.6599 13.8137 9.81177 14.7963 8.66409C15.387 9.45272 15.7733 10.3517 15.9262 11.2941C16.0792 12.2365 15.9949 13.1979 15.6797 14.1067C15.3645 15.0156 14.8265 15.8483 14.1058 16.543C13.3851 17.2377 12.5003 17.7763 11.5173 18.1188Z" fill="white"/>
  </symbol>
  <symbol fill="none" xmlns="http://www.w3.org/2000/svg" viewBox="0 0 10 6" id="arrow">
    <path d="M1 0.5L5 4.5L9 0.5" stroke="white" stroke-linecap="round"></path>
  </symbol>
  <symbol fill="none" xmlns="http://www.w3.org/2000/svg" viewBox="0 0 20 20" id="brush">
    <path d="M1 19V15C1 14.2089 1.2346 13.4355 1.67412 12.7777C2.11365 12.1199 2.73836 11.6072 3.46927 11.3045C4.20017 11.0017 5.00444 10.9225 5.78036 11.0769C6.55629 11.2312 7.26902 11.6122 7.82843 12.1716C8.38784 12.731 8.7688 13.4437 8.92314 14.2196C9.07748 14.9956 8.99827 15.7998 8.69552 16.5307C8.39277 17.2616 7.88008 17.8864 7.22228 18.3259C6.56448 18.7654 5.79113 19 5 19H1Z" stroke="currentColor" stroke-width="2" stroke-linecap="round" stroke-linejoin="round"></path>
    <path d="M6.2002 11.2C7.21789 8.50499 8.94433 6.13474 11.1973 4.33944C13.4502 2.54414 16.146 1.3904 19.0002 1C18.6098 3.85418 17.4561 6.55002 15.6608 8.80295C13.8655 11.0559 11.4952 12.7823 8.8002 13.8" stroke="currentColor" stroke-width="2" stroke-linecap="round" stroke-linejoin="round"></path>
    <path d="M8.59961 7C10.5428 7.89687 12.1027 9.45683 12.9996 11.4" stroke="currentColor" stroke-width="2" stroke-linecap="round" stroke-linejoin="round"></path>
  </symbol>
  <symbol fill="none" xmlns="http://www.w3.org/2000/svg" viewBox="0 0 21 17" id="burger">
    <rect x="11" y="0.5" width="10" height="2" fill="white"></rect>
    <rect x="4" y="7.5" width="17" height="2" fill="white"></rect>
    <rect y="14.5" width="21" height="2" fill="white"></rect>
  </symbol>
  <symbol fill="none" xmlns="http://www.w3.org/2000/svg" viewBox="0 0 45 44" id="cup">
    <path d="M10.4167 43.75V38.9167H20.0833V31.425C18.1097 30.9819 16.348 30.1466 14.7981 28.9189C13.2482 27.6912 12.1099 26.1502 11.3833 24.2958C8.3625 23.9333 5.83547 22.6146 3.80225 20.3398C1.76903 18.0649 0.751611 15.3961 0.75 12.3333V9.91667C0.75 8.5875 1.22367 7.45006 2.171 6.50433C3.11833 5.55861 4.25578 5.08494 5.58333 5.08333H10.4167V0.25H34.5833V5.08333H39.4167C40.7458 5.08333 41.8841 5.557 42.8314 6.50433C43.7787 7.45167 44.2516 8.58911 44.25 9.91667V12.3333C44.25 15.3944 43.2326 18.0632 41.1977 20.3398C39.1629 22.6162 36.6359 23.9349 33.6167 24.2958C32.8917 26.1486 31.7542 27.6896 30.2043 28.9189C28.6544 30.1482 26.8919 30.9836 24.9167 31.425V38.9167H34.5833V43.75H10.4167ZM10.4167 19.1V9.91667H5.58333V12.3333C5.58333 13.8639 6.02639 15.2438 6.9125 16.4731C7.79861 17.7024 8.96667 18.578 10.4167 19.1ZM22.5 26.8333C24.5139 26.8333 26.2257 26.1285 27.6354 24.7188C29.0451 23.309 29.75 21.5972 29.75 19.5833V5.08333H15.25V19.5833C15.25 21.5972 15.9549 23.309 17.3646 24.7188C18.7743 26.1285 20.4861 26.8333 22.5 26.8333ZM34.5833 19.1C36.0333 18.5764 37.2014 17.6999 38.0875 16.4707C38.9736 15.2414 39.4167 13.8623 39.4167 12.3333V9.91667H34.5833V19.1Z" fill="currentColor"></path>
  </symbol>
  <symbol fill="none" xmlns="http://www.w3.org/2000/svg" viewBox="0 0 39 50" id="energy">
    <path fill-rule="evenodd" clip-rule="evenodd" d="M7.11301 1.50202C7.34028 0.617992 8.13725 0 9.05002 0H26.05C26.6647 0 27.2452 0.282645 27.6243 0.766487C28.0034 1.25033 28.139 1.88162 27.9919 2.47845L25.2026 13.8H36.25C37.0428 13.8 37.7608 14.2683 38.0804 14.9939C38.3999 15.7195 38.2607 16.5653 37.7255 17.1502L8.2588 49.3502C7.64509 50.0208 6.6563 50.1932 5.85186 49.7698C5.04741 49.3464 4.6297 48.4338 4.83505 47.5482L8.79985 30.45H2.25002C1.63181 30.45 1.04835 30.1641 0.669517 29.6756C0.290688 29.187 0.159078 28.5508 0.313007 27.952L7.11301 1.50202ZM10.6009 4L4.82923 26.45H11.3167C11.9265 26.45 12.5031 26.7283 12.8825 27.2057C13.2619 27.6832 13.4028 28.3077 13.265 28.9018L10.4533 41.0271L31.7088 17.8H22.65C22.0353 17.8 21.4548 17.5174 21.0757 17.0335C20.6966 16.5497 20.561 15.9184 20.7081 15.3216L23.4975 4H10.6009ZM15.1951 8.10807C16.2676 8.37231 16.9229 9.45595 16.6586 10.5284L14.3919 19.7284C14.1277 20.8009 13.0441 21.4562 11.9716 21.1919C10.8991 20.9277 10.2439 19.8441 10.5081 18.7716L12.7748 9.57155C13.039 8.49906 14.1226 7.84383 15.1951 8.10807Z" fill="currentColor"></path>
  </symbol>
  <symbol fill="none" xmlns="http://www.w3.org/2000/svg" viewBox="0 0 30 31" id="github">
    <path d="M15 0.5C13.0302 0.5 11.0796 0.897619 9.25975 1.67015C7.43986 2.44269 5.78628 3.57501 4.3934 5.00247C1.58035 7.88536 0 11.7954 0 15.8724C0 22.667 4.305 28.4317 10.26 30.4762C11.01 30.5992 11.25 30.1226 11.25 29.7076V27.1096C7.095 28.032 6.21 25.0497 6.21 25.0497C5.52 23.2665 4.545 22.79 4.545 22.79C3.18 21.8369 4.65 21.8676 4.65 21.8676C6.15 21.9752 6.945 23.451 6.945 23.451C8.25 25.7876 10.455 25.0958 11.31 24.7269C11.445 23.7277 11.835 23.0513 12.255 22.667C8.925 22.2827 5.43 20.9607 5.43 15.1038C5.43 13.3974 6 12.0293 6.975 10.9379C6.825 10.5536 6.3 8.95482 7.125 6.87955C7.125 6.87955 8.385 6.46449 11.25 8.44753C12.435 8.10934 13.725 7.94024 15 7.94024C16.275 7.94024 17.565 8.10934 18.75 8.44753C21.615 6.46449 22.875 6.87955 22.875 6.87955C23.7 8.95482 23.175 10.5536 23.025 10.9379C24 12.0293 24.57 13.3974 24.57 15.1038C24.57 20.976 21.06 22.2673 17.715 22.6516C18.255 23.1282 18.75 24.0659 18.75 25.4955V29.7076C18.75 30.1226 18.99 30.6145 19.755 30.4762C25.71 28.4163 30 22.667 30 15.8724C30 13.8537 29.612 11.8547 28.8582 9.98964C28.1044 8.12457 26.9995 6.42993 25.6066 5.00247C24.2137 3.57501 22.5601 2.44269 20.7403 1.67015C18.9204 0.897619 16.9698 0.5 15 0.5Z" fill="white"></path>
  </symbol>
  <symbol fill="none" xmlns="http://www.w3.org/2000/svg" viewBox="0 0 46 46" id="hands">
    <path d="M9.61323 4.45857C9.70134 4.57643 9.82371 4.66422 9.96364 4.70995C10.1036 4.75567 10.2542 4.7571 10.395 4.71403C10.5357 4.67096 10.6597 4.58549 10.7501 4.46932C10.8404 4.35314 10.8926 4.21192 10.8996 4.06497L11.1187 0.781246C11.1277 0.664764 11.1085 0.547829 11.0626 0.44039C11.0166 0.332952 10.9454 0.238189 10.855 0.164166C10.7645 0.0901422 10.6575 0.0390483 10.5431 0.0152314C10.4286 -0.00858558 10.3101 -0.0044206 10.1976 0.0273718L8.03785 0.698717C7.92612 0.735433 7.82469 0.798129 7.74193 0.88165C7.65916 0.965172 7.5974 1.06713 7.56175 1.17915C7.52609 1.29117 7.51755 1.41005 7.53682 1.52601C7.55609 1.64197 7.60262 1.75171 7.6726 1.84619L9.61323 4.45857ZM5.86536 7.03285L2.91153 5.79491C2.80463 5.75148 2.71006 5.68243 2.63615 5.59385C2.56225 5.50527 2.51129 5.39989 2.48775 5.28699C2.46421 5.17408 2.46883 5.05713 2.50119 4.94642C2.53355 4.83572 2.59266 4.73468 2.67332 4.65219L4.21376 3.01748C4.29294 2.93396 4.39114 2.8708 4.49999 2.83337C4.60885 2.79594 4.72515 2.78535 4.83898 2.80249C4.95282 2.81963 5.06082 2.864 5.15381 2.93183C5.2468 2.99966 5.32201 3.08893 5.37305 3.19206L6.78645 6.06472C6.84757 6.19539 6.86785 6.34145 6.84464 6.48382C6.82144 6.62619 6.75582 6.75827 6.65637 6.8628C6.55691 6.96734 6.42823 7.03948 6.28712 7.06982C6.14601 7.10015 5.99903 7.08727 5.86536 7.03285ZM44.173 13.5987C44.7053 14.0576 45.1397 14.6188 45.4504 15.2489C45.7612 15.879 45.9419 16.5652 45.9819 17.2665V32.2567C46.1052 34.6183 45.5978 36.9702 44.5116 39.0711C43.4255 41.1721 41.7997 42.9465 39.8011 44.2124C37.8244 45.3946 35.5601 46.0102 33.2566 45.9915C31.7101 45.9902 30.1748 45.7295 28.7147 45.2202C27.3189 45.7328 25.844 45.9965 24.357 45.9994C22.2846 46.0186 20.2371 45.548 18.3814 44.6259C16.5257 43.7039 14.9143 42.3565 13.6787 40.6938L8.16649 31.6996L4.19629 25.002C3.64251 23.9331 3.47347 22.7063 3.71752 21.5276C3.96157 20.3488 4.60386 19.2898 5.53663 18.5282C5.89447 18.2849 6.27297 18.0791 6.6721 17.9109C6.31915 16.9014 6.29828 15.8056 6.61254 14.7834C6.92681 13.7613 7.55976 12.8663 8.41899 12.229C8.76837 12.0142 9.13363 11.8328 9.51477 11.6847C9.46395 11.272 9.46766 10.8599 9.52589 10.4483C9.63275 9.71366 9.90197 9.01203 10.314 8.39435C10.7261 7.77667 11.2706 7.25845 11.908 6.87731C12.7855 6.38768 13.7882 6.16817 14.7902 6.24639C15.7921 6.32461 16.7486 6.69707 17.5393 7.31694C17.8083 7.03232 18.1095 6.78738 18.443 6.58211C19.4672 5.96837 20.6915 5.78088 21.8526 6.05996C22.5369 5.87632 23.25 5.82514 23.9536 5.90918C24.8564 6.00666 25.7085 6.37518 26.3977 6.96619C26.6708 6.67628 26.9773 6.42605 27.3172 6.21549C28.4047 5.57521 29.7017 5.39158 30.9244 5.7048C32.147 6.01801 33.1958 6.80256 33.841 7.88671L37.1315 13.759C37.5638 13.3144 38.0796 12.9593 38.6495 12.7142C39.2193 12.4691 39.8319 12.3388 40.4522 12.3306C41.8103 12.2552 43.1446 12.7089 44.173 13.5987ZM25.3575 19.5837H25.3479L25.2892 19.6234L25.3305 19.598L25.3575 19.5837ZM14.5236 9.41509C14.1916 9.38954 13.8587 9.45138 13.558 9.59444V9.58809C13.3205 9.72252 13.1168 9.90933 12.9624 10.1343C12.808 10.3593 12.707 10.6165 12.6671 10.8863C12.6259 11.1931 12.6915 11.5046 12.8529 11.7688L15.2096 15.3477C15.2583 14.6639 15.4619 14.0001 15.805 13.4065C16.148 12.8129 16.6216 12.305 17.19 11.9211C17.2662 11.8735 17.3424 11.8402 17.4171 11.8053C17.4679 11.7831 17.5198 11.7582 17.5727 11.7307C17.1622 11.6769 16.789 11.4651 16.5325 11.1403L15.5495 9.87059C15.5147 9.82529 15.4823 9.77813 15.4526 9.72934C15.1757 9.54538 14.8554 9.43704 14.5236 9.41509ZM10.89 14.5732C10.5984 14.6574 10.3203 14.783 10.0642 14.9462L10.069 14.9398C9.83148 15.2269 9.6755 15.5725 9.61739 15.9405C9.55928 16.3085 9.60117 16.6853 9.73869 17.0316C9.94037 17.4189 10.0897 17.6982 10.204 17.914L10.2151 17.9331L12.4464 21.285C12.6211 20.3629 13.0467 19.5059 13.6755 18.8092L10.89 14.5732ZM10.8821 30.0713L16.326 38.959L16.3308 38.9527C17.2829 40.2055 18.5225 41.211 19.9452 41.8845C21.3678 42.5579 22.9316 42.8795 24.5047 42.8221C23.7513 42.1854 23.0811 41.4565 22.51 40.6525L16.9422 31.5695L14.5903 27.6017C14.2469 27.7923 13.8445 27.8475 13.4624 27.7564C13.0803 27.6653 12.7462 27.4346 12.5258 27.1097L8.26019 20.72C7.91673 20.8034 7.59299 20.9533 7.30734 21.1613C7.05685 21.4644 6.88885 21.827 6.81958 22.214C6.75031 22.601 6.78211 22.9994 6.9119 23.3705L10.8821 30.0713ZM31.1619 42.6618C33.552 43.1412 36.0351 42.732 38.1447 41.5111L38.1494 41.5048C39.6533 40.537 40.8759 39.1909 41.6946 37.6017C42.5133 36.0124 42.8992 34.2358 42.8136 32.4503V17.3665C42.7879 17.094 42.7082 16.8293 42.5791 16.5879C42.45 16.3465 42.2742 16.1332 42.0618 15.9604C41.8494 15.7875 41.6047 15.6587 41.342 15.5813C41.0793 15.5039 40.8038 15.4795 40.5316 15.5096C40.124 15.5175 39.7336 15.6751 39.4348 15.9523C39.1361 16.2295 38.9499 16.6069 38.9117 17.0126C39.5279 18.1188 40.0393 19.0298 40.2918 19.4662C40.4816 19.8289 40.5239 20.2509 40.4098 20.6441C40.2957 21.0372 40.034 21.3711 39.6793 21.576C39.3247 21.7808 38.9046 21.8408 38.5068 21.7434C38.1089 21.646 37.7641 21.3988 37.5444 21.0533C37.0416 20.173 36.5446 19.2895 36.0532 18.4029L35.9404 18.2013V18.1061L35.9166 18.0743C35.906 18.0638 35.8965 18.0516 35.888 18.0378L31.1238 9.53254C31.0007 9.27328 30.8051 9.05516 30.5607 8.9045C30.3163 8.75384 30.0335 8.67706 29.7464 8.68344C29.4593 8.68981 29.1802 8.77907 28.9428 8.94043C28.7053 9.1018 28.5196 9.32838 28.4082 9.59285L30.0344 12.2021L30.2106 12.4877C31.4269 14.4519 32.654 16.4094 33.8918 18.36C34.1107 18.7133 34.1822 19.1382 34.091 19.5436C33.9998 19.949 33.7531 20.3024 33.4041 20.5281C33.055 20.7538 32.6313 20.8336 32.2239 20.7505C31.8166 20.6674 31.4581 20.428 31.2254 20.0836C29.9788 18.1184 28.7417 16.1472 27.5141 14.1701L26.1531 11.9862L25.5083 10.9498L25.4877 10.9181L25.4416 10.8419C25.4353 10.8345 25.4279 10.8281 25.4194 10.8229L25.394 10.7975L24.4014 9.50715C24.3672 9.4618 24.3354 9.41465 24.3062 9.36589C24.098 9.17616 23.8286 9.06746 23.547 9.05958C23.1472 8.99194 22.7363 9.04729 22.3687 9.21829C22.1276 9.35609 21.9208 9.54658 21.7638 9.77552C21.6067 10.0045 21.5035 10.2659 21.4619 10.5404C21.4219 10.8341 21.4776 11.1329 21.6207 11.3926C22.3583 11.6853 23.0392 12.1042 23.6328 12.6306C24.123 13.131 24.5518 13.6812 24.9192 14.2812C25.3622 14.9493 25.8625 15.7683 26.358 16.5936C26.728 17.2125 27.0948 17.8331 27.4363 18.4124L27.5649 18.6298C28.1048 19.5392 28.5622 20.309 28.8655 20.7788C28.9793 20.9537 29.0575 21.1494 29.0956 21.3545C29.1337 21.5597 29.131 21.7704 29.0876 21.9745C29.0443 22.1786 28.9611 22.3722 28.8429 22.5442C28.7247 22.7162 28.5737 22.8632 28.3986 22.9769C28.2236 23.0906 28.0278 23.1687 27.8225 23.2068C27.6172 23.2449 27.4064 23.2422 27.2022 23.1988C26.9979 23.1555 26.8042 23.0724 26.6321 22.9543C26.46 22.8361 26.3129 22.6853 26.1991 22.5103C25.8355 21.9485 25.286 21.0152 24.6936 20.0138L24.4729 19.6392L24.4713 19.6376C24.1966 19.1726 23.9155 18.6965 23.6376 18.2346C23.1484 17.4173 22.6752 16.6475 22.2718 16.0365C22.0628 15.7052 21.8365 15.3853 21.5937 15.0779L21.5334 15.0112C21.1846 14.6951 20.778 14.4494 20.336 14.2875C20.2181 14.2709 20.1025 14.2411 19.9913 14.1986C19.5816 14.2462 19.1894 14.397 18.8511 14.6335C18.6077 14.9255 18.447 15.2774 18.3859 15.6526C18.3247 16.0277 18.3653 16.4124 18.5033 16.7666L19.0067 17.703C19.6753 17.987 20.2978 18.3711 20.8521 18.8425C21.2809 19.2615 21.6514 19.726 21.9637 20.236C22.3068 20.7597 22.672 21.3787 23.0262 21.9945C23.239 22.3643 23.4486 22.7357 23.6503 23.0943L23.6614 23.1134L23.7249 23.2277C24.1902 24.0498 24.6063 24.7846 24.9461 25.3099C25.0643 25.4849 25.1464 25.6816 25.1876 25.8886C25.2288 26.0956 25.2282 26.3087 25.186 26.5155C25.1437 26.7223 25.0607 26.9186 24.9416 27.093C24.8225 27.2673 24.6698 27.4161 24.4925 27.5307C24.3152 27.6453 24.1167 27.7235 23.9088 27.7605C23.7009 27.7976 23.4877 27.7928 23.2817 27.7465C23.0756 27.7002 22.8809 27.6133 22.7088 27.4909C22.5368 27.3685 22.3909 27.213 22.2798 27.0335C21.7841 26.2409 21.3112 25.4343 20.8616 24.6148L20.2661 23.5673C19.9606 23.0242 19.6391 22.4901 19.3021 21.9659C19.181 21.7823 19.0544 21.6024 18.9226 21.4263C18.8654 21.3494 18.8033 21.2762 18.7368 21.2073C18.3836 20.9146 17.9858 20.6804 17.5584 20.5137C17.4419 20.4947 17.3279 20.4628 17.2185 20.4185C16.7963 20.4932 16.3963 20.6619 16.0481 20.9121C15.7949 21.2213 15.6254 21.5904 15.5559 21.9839C15.4864 22.3774 15.5192 22.7822 15.6511 23.1594L19.6594 29.9316L25.159 38.9114C26.636 40.8503 28.7707 42.1834 31.1619 42.6602M1.69982 8.04384L4.44879 9.88805C4.57282 9.97387 4.66785 10.0953 4.7213 10.2363C4.77475 10.3773 4.78411 10.5312 4.74813 10.6776C4.71215 10.824 4.63253 10.956 4.51981 11.0562C4.40709 11.1564 4.26658 11.22 4.11688 11.2387L0.827968 11.6672C0.709461 11.682 0.589141 11.6677 0.477368 11.6257C0.365595 11.5836 0.265719 11.5151 0.186339 11.4259C0.10696 11.3367 0.0504554 11.2296 0.021692 11.1138C-0.00707145 10.998 -0.00723203 10.8769 0.0212236 10.761L0.564347 8.48822C0.593875 8.37289 0.650426 8.26623 0.729332 8.17704C0.808239 8.08785 0.907239 8.0187 1.01816 7.97529C1.12908 7.93188 1.24874 7.91546 1.36727 7.92737C1.48579 7.93929 1.59978 7.97921 1.69982 8.04384Z" fill="currentColor"></path>
  </symbol>
  <symbol fill="none" xmlns="http://www.w3.org/2000/svg" viewBox="0 0 20 20" id="instruments">
    <path d="M19.4715 14.1007L15.416 9.99976L18.836 6.57977C19.1878 6.22964 19.467 5.81344 19.6575 5.35508C19.8481 4.89672 19.9461 4.40524 19.9461 3.90886C19.9461 3.41248 19.8481 2.921 19.6575 2.46264C19.467 2.00428 19.1878 1.58808 18.836 1.23795C18.1268 0.531023 17.1664 0.134063 16.1651 0.134063C15.1638 0.134063 14.2033 0.531023 13.4941 1.23795L12.1473 2.56962L10.0136 4.70333L5.89755 0.541844C5.54141 0.194298 5.0635 -0.000244141 4.56588 -0.000244141C4.06826 -0.000244141 3.59035 0.194298 3.2342 0.541844L0.555723 3.22032C0.379567 3.39604 0.239806 3.60477 0.144446 3.83458C0.0490858 4.06439 0 4.31076 0 4.55957C0 4.80837 0.0490858 5.05474 0.144446 5.28455C0.239806 5.51436 0.379567 5.72309 0.555723 5.89881L4.7172 9.99976L4.38429 10.3327L3.03748 11.6643L0.389264 17.2029C0.217871 17.5566 0.160893 17.9548 0.226247 18.3424C0.291601 18.7299 0.476042 19.0875 0.753942 19.3654C1.03184 19.6433 1.3894 19.8277 1.77694 19.8931C2.16448 19.9584 2.56275 19.9014 2.91642 19.7301L8.39444 17.0818L9.13594 16.3403L9.72611 15.7502L10.0136 15.4021L14.0692 19.4577C14.4253 19.8052 14.9032 19.9998 15.4009 19.9998C15.8985 19.9998 16.3764 19.8052 16.7325 19.4577L19.411 16.7792C19.5912 16.6075 19.7357 16.4019 19.8363 16.1743C19.9369 15.9466 19.9916 15.7013 19.9972 15.4525C20.0028 15.2037 19.9593 14.9562 19.8691 14.7242C19.7789 14.4923 19.6438 14.2804 19.4715 14.1007ZM16.1575 1.99458C16.6604 1.99295 17.1439 2.18854 17.5043 2.53935C17.6805 2.71507 17.8202 2.9238 17.9156 3.15361C18.0109 3.38342 18.06 3.62979 18.06 3.8786C18.06 4.1274 18.0109 4.37377 17.9156 4.60358C17.8202 4.83339 17.6805 5.04212 17.5043 5.21784L14.8258 2.61502C15.1824 2.26785 15.6598 2.07256 16.1575 2.07024V1.99458ZM1.8874 4.552L4.56588 1.88865L5.80676 3.12953L4.49021 4.4612L5.82189 5.79288L7.15356 4.4612L8.66683 5.97447L6.04888 8.71348L1.8874 4.552ZM2.08412 18.0352L4.45995 13.1473L6.9871 15.6594L2.08412 18.0352ZM8.39444 14.4034L5.71596 11.7249L13.4941 3.94669L16.1575 6.61004L8.39444 14.4034ZM15.4614 18.1109L11.4058 14.0704L14.0843 11.392L15.4917 12.7993L14.16 14.131L15.4917 15.4778L16.8385 14.131L18.1399 15.4475L15.4614 18.1109Z" fill="currentColor"></path>
  </symbol>
  <symbol fill="none" xmlns="http://www.w3.org/2000/svg" viewBox="0 0 20 20" id="internet">
    <path fill-rule="evenodd" clip-rule="evenodd" d="M7.66576 0.183368C9.51319 -0.184108 11.4281 0.00449421 13.1683 0.725324C14.9086 1.44615 16.396 2.66684 17.4425 4.23301C18.4889 5.79918 19.0475 7.6405 19.0475 9.52412C19.0475 10.0501 18.6211 10.4765 18.0951 10.4765C17.5691 10.4765 17.1427 10.0501 17.1427 9.52412C17.1427 8.87809 17.0606 8.23828 16.9008 7.61937H2.14669C2.11099 7.75763 2.07912 7.89714 2.05115 8.03773C1.82685 9.16536 1.86152 10.3244 2.14668 11.4289H9.04756C9.57355 11.4289 9.99994 11.8553 9.99994 12.3812C9.99994 12.9072 9.57355 13.3336 9.04756 13.3336H2.9255C3.50762 14.3419 4.31549 15.2074 5.29086 15.8591C6.5438 16.6963 8.01686 17.1431 9.52375 17.1431C10.0497 17.1431 10.4761 17.5695 10.4761 18.0955C10.4761 18.6215 10.0497 19.0479 9.52375 19.0479C7.64013 19.0479 5.79881 18.4893 4.23264 17.4428C2.66647 16.3963 1.44579 14.9089 0.724956 13.1687C0.00412648 11.4285 -0.184475 9.51356 0.183 7.66613C0.550476 5.8187 1.45753 4.12173 2.78945 2.78981C4.12137 1.45789 5.81834 0.550844 7.66576 0.183368ZM2.92551 5.71462H16.122C16.0391 5.57097 15.9513 5.42975 15.8587 5.29123C15.0215 4.03829 13.8316 3.06175 12.4394 2.48508C11.0472 1.90842 9.5153 1.75754 8.03736 2.05152C6.55942 2.3455 5.20184 3.07114 4.13631 4.13667C3.66294 4.61004 3.25666 5.14104 2.92551 5.71462Z" fill="currentColor"></path>
    <path fill-rule="evenodd" clip-rule="evenodd" d="M9.52367 0.127954C9.08116 -0.127886 8.51219 0.0116012 8.23952 0.448549C6.54072 3.17083 5.64008 6.31527 5.64008 9.52412C5.64008 12.733 6.54072 15.8774 8.23952 18.5997C8.51798 19.0459 9.10546 19.1819 9.55168 18.9035C9.99791 18.625 10.1339 18.0375 9.85545 17.5913C8.3454 15.1715 7.54483 12.3764 7.54483 9.52412C7.54483 6.88844 8.22841 4.30166 9.52369 2.01466C10.7624 4.20153 11.4427 6.66413 11.4991 9.18355C11.5109 9.7094 11.9468 10.1261 12.4726 10.1144C12.9985 10.1026 13.4152 9.66674 13.4034 9.14089C13.3345 6.06292 12.4379 3.06032 10.8078 0.448506C10.5351 0.0115874 9.96616 -0.127876 9.52367 0.127954ZM12.5442 12.5446C13.2586 11.8302 14.2276 11.4289 15.2379 11.4289C16.2483 11.4289 17.2172 11.8302 17.9316 12.5446C18.6461 13.2591 19.0474 14.228 19.0474 15.2384C19.0474 15.9247 18.8622 16.5918 18.5195 17.1731L19.7208 18.3744C20.0928 18.7464 20.0928 19.3494 19.7208 19.7213C19.3489 20.0932 18.7459 20.0932 18.374 19.7213L17.1727 18.52C16.5914 18.8627 15.9242 19.0479 15.2379 19.0479C14.2276 19.0479 13.2586 18.6465 12.5442 17.9321C11.8298 17.2177 11.4284 16.2487 11.4284 15.2384C11.4284 14.228 11.8298 13.2591 12.5442 12.5446ZM15.2379 13.3336C14.7327 13.3336 14.2483 13.5343 13.8911 13.8915C13.5338 14.2487 13.3332 14.7332 13.3332 15.2384C13.3332 15.7435 13.5338 16.228 13.8911 16.5852C14.2483 16.9424 14.7327 17.1431 15.2379 17.1431C15.7431 17.1431 16.2276 16.9424 16.5848 16.5852C16.942 16.228 17.1427 15.7435 17.1427 15.2384C17.1427 14.7332 16.942 14.2487 16.5848 13.8915C16.2276 13.5343 15.7431 13.3336 15.2379 13.3336Z" fill="currentColor"></path>
  </symbol>
  <symbol fill="none" xmlns="http://www.w3.org/2000/svg" viewBox="0 0 20 20" id="internet2">
    <path d="M14.36 12C14.44 11.34 14.5 10.68 14.5 10C14.5 9.32 14.44 8.66 14.36 8H17.74C17.9 8.64 18 9.31 18 10C18 10.69 17.9 11.36 17.74 12M12.59 17.56C13.19 16.45 13.65 15.25 13.97 14H16.92C15.9512 15.6683 14.4141 16.932 12.59 17.56ZM12.34 12H7.66C7.56 11.34 7.5 10.68 7.5 10C7.5 9.32 7.56 8.65 7.66 8H12.34C12.43 8.65 12.5 9.32 12.5 10C12.5 10.68 12.43 11.34 12.34 12ZM10 17.96C9.17 16.76 8.5 15.43 8.09 14H11.91C11.5 15.43 10.83 16.76 10 17.96ZM6 6H3.08C4.03864 4.32703 5.57466 3.06124 7.4 2.44C6.8 3.55 6.35 4.75 6 6ZM3.08 14H6C6.35 15.25 6.8 16.45 7.4 17.56C5.57827 16.9323 4.04429 15.6682 3.08 14ZM2.26 12C2.1 11.36 2 10.69 2 10C2 9.31 2.1 8.64 2.26 8H5.64C5.56 8.66 5.5 9.32 5.5 10C5.5 10.68 5.56 11.34 5.64 12M10 2.03C10.83 3.23 11.5 4.57 11.91 6H8.09C8.5 4.57 9.17 3.23 10 2.03ZM16.92 6H13.97C13.6565 4.76161 13.1931 3.56611 12.59 2.44C14.43 3.07 15.96 4.34 16.92 6ZM10 0C4.47 0 0 4.5 0 10C0 12.6522 1.05357 15.1957 2.92893 17.0711C3.85752 17.9997 4.95991 18.7362 6.17317 19.2388C7.38642 19.7413 8.68678 20 10 20C12.6522 20 15.1957 18.9464 17.0711 17.0711C18.9464 15.1957 20 12.6522 20 10C20 8.68678 19.7413 7.38642 19.2388 6.17317C18.7362 4.95991 17.9997 3.85752 17.0711 2.92893C16.1425 2.00035 15.0401 1.26375 13.8268 0.761205C12.6136 0.258658 11.3132 0 10 0Z" fill="currentColor"></path>
  </symbol>
  <symbol fill="none" xmlns="http://www.w3.org/2000/svg" viewBox="0 0 20 16" id="large-arrow">
    <path d="M1.5 7L0.5 7L0.5 9L1.5 9L1.5 7ZM19.2071 8.70711C19.5976 8.31658 19.5976 7.68342 19.2071 7.29289L12.8431 0.928933C12.4526 0.538409 11.8195 0.538409 11.4289 0.928933C11.0384 1.31946 11.0384 1.95262 11.4289 2.34315L17.0858 8L11.4289 13.6569C11.0384 14.0474 11.0384 14.6805 11.4289 15.0711C11.8195 15.4616 12.4526 15.4616 12.8431 15.0711L19.2071 8.70711ZM1.5 9L18.5 9L18.5 7L1.5 7L1.5 9Z" fill="white"></path>
  </symbol>
  <symbol viewBox="0 0 12 21" fill="none" xmlns="http://www.w3.org/2000/svg" id="burger-arrow">
    <path d="M10.5 19.5L1.5 10.5L10.5 1.5" stroke="white" stroke-width="2" stroke-linecap="round"/>
  </symbol>
  <symbol viewBox="0 0 20 21" fill="none" xmlns="http://www.w3.org/2000/svg" id="menu_cross">
    <path d="M19 19.5L1 1.5" stroke="white" stroke-width="2" stroke-linecap="round"/>
    <path d="M19 1.5L0.999998 19.5" stroke="white" stroke-width="2" stroke-linecap="round"/>
  </symbol>
  <symbol viewBox="0 0 18 38" fill="none" xmlns="http://www.w3.org/2000/svg" id="one">
    <path d="M10.8211 38V9.24755L3.01966 12.063C2.49228 12.2533 1.9115 11.9729 1.73252 11.4416L0.312552 7.22583C0.138879 6.71022 0.4093 6.15037 0.92114 5.96587L17.4179 0.019559C17.4538 0.00661738 17.4917 0 17.5298 0C17.7895 0 18 0.210506 18 0.470178V38H10.8211Z" fill="#E93580"/>
  </symbol>
  
  <symbol viewBox="0 0 26 38" fill="none" xmlns="http://www.w3.org/2000/svg" id="two">
    <path d="M2.3397 38C1.23513 38 0.339698 37.1046 0.339698 36V33.615C0.339698 33.0563 0.573401 32.5231 0.984222 32.1444L8.15276 25.5371C10.5916 23.2872 12.5166 21.4005 13.9276 19.8769C15.3561 18.3357 16.3665 16.9716 16.9588 15.7846C17.5685 14.5977 17.8734 13.4019 17.8734 12.1972C17.8734 10.4256 17.2898 9.05268 16.1226 8.07832C14.9554 7.10396 13.3092 6.61678 11.1839 6.61678C9.58124 6.61678 8.03953 6.92681 6.55879 7.54685C5.54182 7.96546 4.60898 8.52525 3.76028 9.22623C3.21675 9.67516 2.36515 9.54132 2.06357 8.90412L0.315354 5.21036C0.127839 4.81416 0.218289 4.33963 0.55381 4.05757C2.02216 2.82318 3.67541 1.8604 5.51357 1.16923C7.60402 0.389744 9.74673 0 11.9417 0C14.5896 0 16.8978 0.469464 18.8663 1.40839C20.8348 2.34732 22.3504 3.66713 23.4131 5.36783C24.4931 7.05082 25.0332 9.01725 25.0332 11.2671C25.0332 12.8084 24.737 14.3231 24.1447 15.8112C23.5524 17.2816 22.4985 18.938 20.9829 20.7804C19.4848 22.6228 17.3682 24.855 14.6332 27.4769L10.3739 31.5161H25C25.5523 31.5161 26 31.9638 26 32.5161V37C26 37.5523 25.5523 38 25 38H2.3397Z" fill="#E93580"/>
  </symbol>
  
  <symbol viewBox="0 0 26 38" fill="none" xmlns="http://www.w3.org/2000/svg" id="three">
    <path d="M12.0449 38C10.4354 38 8.85238 37.8228 7.29592 37.4685C5.75714 37.1319 4.34218 36.6625 3.05102 36.0601C2.02864 35.5766 1.17156 35.0416 0.479778 34.4553C0.177427 34.199 0.0927773 33.7756 0.236531 33.4063L1.86386 29.2251C2.13107 28.5385 3.03512 28.3599 3.62223 28.8049C4.43672 29.4223 5.38714 29.9451 6.47347 30.3734C8.15374 31.0112 9.8517 31.3301 11.5673 31.3301C12.9823 31.3301 14.2204 31.0998 15.2816 30.6392C16.3429 30.1608 17.1653 29.4965 17.749 28.6462C18.3503 27.7958 18.651 26.8037 18.651 25.6699C18.651 23.8807 17.9966 22.49 16.6878 21.4979C15.3966 20.5058 13.6898 20.0098 11.5673 20.0098C10.8952 20.0098 10.1878 20.0629 9.4449 20.1692C8.98632 20.2252 8.52067 20.3025 8.04794 20.401C7.56649 20.5014 7.07261 20.2621 6.87741 19.8107L5.35448 16.2891C5.18312 15.8929 5.28538 15.4314 5.60808 15.1447L15.4143 6.43077H1.39796C0.845675 6.43077 0.397959 5.98305 0.397959 5.43077V1C0.397959 0.447715 0.845675 0 1.39796 0H23.3816C23.9339 0 24.3816 0.447715 24.3816 1V5.47738C24.3816 5.74715 24.2726 6.00547 24.0794 6.1937L14.7245 15.3063C16.6524 15.3594 18.4742 15.8023 20.1898 16.635C21.9054 17.4676 23.3027 18.6811 24.3816 20.2755C25.4605 21.8699 26 23.8452 26 26.2014C26 28.5044 25.4075 30.5417 24.2225 32.3133C23.0374 34.0848 21.3925 35.4755 19.2878 36.4853C17.2007 37.4951 14.7864 38 12.0449 38Z" fill="#E93580"/>
  </symbol>
  
  <symbol viewBox="0 0 30 38" fill="none" xmlns="http://www.w3.org/2000/svg" id="four">
    <path d="M19.0749 38C18.5226 38 18.0749 37.5523 18.0749 37V30.6443H0.999999C0.447714 30.6443 0 30.1966 0 29.6443V25.0711C0 24.9163 0.0359518 24.7636 0.105023 24.625L12.1036 0.553888C12.2728 0.214499 12.6193 0 12.9986 0H18.5971C19.3401 0 19.8237 0.781766 19.4918 1.44663L8.15508 24.1571H18.0749V17.3943C18.0749 16.842 18.5226 16.3943 19.0749 16.3943H23.6791C24.2314 16.3943 24.6791 16.842 24.6791 17.3943V24.1571H29C29.5523 24.1571 30 24.6049 30 25.1571V29.6443C30 30.1966 29.5523 30.6443 29 30.6443H24.6791V37C24.6791 37.5523 24.2314 38 23.6791 38H19.0749Z" fill="#E93580"/>
  </symbol>
  
  <symbol viewBox="0 0 26 38" fill="none" xmlns="http://www.w3.org/2000/svg" id="five">
    <path d="M11.9637 38C9.60242 38 7.36361 37.6632 5.24723 36.9895C3.41726 36.3867 1.85322 35.602 0.555086 34.6353C0.215159 34.3822 0.0989431 33.9318 0.24693 33.5347L1.77481 29.4344C2.02664 28.7586 2.8951 28.5606 3.47945 28.9833C4.38144 29.6358 5.39048 30.1506 6.50656 30.5276C8.15069 31.0595 9.8298 31.3254 11.5439 31.3254C13.0131 31.3254 14.2812 31.1038 15.3481 30.6606C16.4326 30.1997 17.2634 29.526 17.8406 28.6396C18.4178 27.7355 18.7064 26.6275 18.7064 25.3156C18.7064 24.1633 18.4003 23.1705 17.7881 22.3373C17.1934 21.5041 16.3539 20.8659 15.2694 20.4227C14.2025 19.9617 12.9519 19.7313 11.5177 19.7313C10.5906 19.7313 9.61991 19.8465 8.60545 20.077C7.81126 20.2574 7.01172 20.5084 6.20681 20.8301C5.80358 20.9913 5.33917 20.895 5.04911 20.5718L2.65956 17.9097C2.46972 17.6982 2.37884 17.4159 2.40963 17.1334L4.17921 0.892826C4.23454 0.384983 4.66375 0.000493692 5.1746 0.00114494L24.1355 0.0253169C24.6873 0.0260203 25.1342 0.473529 25.1342 1.02532V5.80756C25.1342 6.35984 24.6865 6.80756 24.1342 6.80756H9.65489L8.73663 14.3597C9.45375 14.1647 10.1796 14.014 10.9142 13.9076C11.6488 13.7835 12.3835 13.7215 13.1181 13.7215C15.6192 13.7215 17.8406 14.2001 19.782 15.1575C21.7235 16.097 23.2452 17.4621 24.3471 19.2526C25.449 21.0254 26 23.1617 26 25.6613C26 28.161 25.4141 30.3326 24.2422 32.1763C23.0703 34.0201 21.4262 35.456 19.3098 36.4843C17.2109 37.4948 14.7622 38 11.9637 38Z" fill="#E93580"/>
  </symbol>
</svg>