<svg width="20" height="20" viewBox="0 0 20 20" fill="none" xmlns="http://www.w3.org/2000/svg">
<path fill-rule="evenodd" clip-rule="evenodd" d="M0.976311 0.976311C1.60143 0.351189 2.44928 0 3.33333 0C4.21739 0 5.06524 0.351189 5.69036 0.976311C6.04525 1.33121 6.31185 1.75789 6.47603 2.22222H13.524C13.6881 1.75788 13.9548 1.3312 14.3096 0.976311C14.9348 0.351189 15.7826 0 16.6667 0C17.5507 0 18.3986 0.351189 19.0237 0.976311C19.6488 1.60143 20 2.44928 20 3.33333C20 4.21739 19.6488 5.06524 19.0237 5.69036C18.6688 6.04525 18.2421 6.31185 17.7778 6.47603V13.524C18.2421 13.6881 18.6688 13.9548 19.0237 14.3096C19.6488 14.9348 20 15.7826 20 16.6667C20 17.5507 19.6488 18.3986 19.0237 19.0237C18.3986 19.6488 17.5507 20 16.6667 20C15.7826 20 14.9348 19.6488 14.3096 19.0237C13.9548 18.6688 13.6881 18.2421 13.524 17.7778H6.47603C6.31185 18.2421 6.04525 18.6688 5.69036 19.0237C5.06524 19.6488 4.21739 20 3.33333 20C2.44928 20 1.60143 19.6488 0.976311 19.0237C0.351189 18.3986 0 17.5507 0 16.6667C0 15.7826 0.351189 14.9348 0.976311 14.3096C1.3312 13.9548 1.75788 13.6881 2.22222 13.524V6.47603C1.75789 6.31185 1.33121 6.04525 0.976311 5.69036C0.351189 5.06524 0 4.21739 0 3.33333C0 2.44928 0.351189 1.60143 0.976311 0.976311ZM4.44444 6.47603V13.524C4.90878 13.6881 5.33546 13.9548 5.69036 14.3096C6.04525 14.6645 6.31185 15.0912 6.47603 15.5556H13.524C13.6881 15.0912 13.9548 14.6645 14.3096 14.3096C14.6645 13.9548 15.0912 13.6881 15.5556 13.524V6.47603C15.0912 6.31185 14.6645 6.04525 14.3096 5.69036C13.9548 5.33546 13.6881 4.90878 13.524 4.44444H6.47603C6.43686 4.55522 6.39187 4.66386 6.34123 4.76988L8.56345 6.9921C9.00788 6.77986 9.4981 6.66667 10 6.66667C10.8841 6.66667 11.7319 7.01786 12.357 7.64298C12.9821 8.2681 13.3333 9.11594 13.3333 10C13.3333 10.8841 12.9821 11.7319 12.357 12.357C11.7319 12.9821 10.8841 13.3333 10 13.3333C9.11594 13.3333 8.2681 12.9821 7.64298 12.357C7.01786 11.7319 6.66667 10.8841 6.66667 10C6.66667 9.4981 6.77986 9.00788 6.9921 8.56345L4.76988 6.34123C4.66386 6.39187 4.55522 6.43686 4.44444 6.47603ZM3.33333 2.22222C3.03865 2.22222 2.75603 2.33929 2.54766 2.54766C2.33929 2.75603 2.22222 3.03865 2.22222 3.33333C2.22222 3.62802 2.33929 3.91063 2.54766 4.11901C2.75603 4.32738 3.03865 4.44444 3.33333 4.44444C3.62802 4.44444 3.91063 4.32738 4.11901 4.11901C4.32738 3.91063 4.44444 3.62802 4.44444 3.33333C4.44444 3.03865 4.32738 2.75603 4.11901 2.54766C3.91063 2.33929 3.62802 2.22222 3.33333 2.22222ZM16.6667 2.22222C16.372 2.22222 16.0894 2.33929 15.881 2.54766C15.6726 2.75603 15.5556 3.03865 15.5556 3.33333C15.5556 3.62802 15.6726 3.91063 15.881 4.11901C16.0894 4.32738 16.372 4.44444 16.6667 4.44444C16.9614 4.44444 17.244 4.32738 17.4523 4.11901C17.6607 3.91063 17.7778 3.62802 17.7778 3.33333C17.7778 3.03865 17.6607 2.75603 17.4523 2.54766C17.244 2.33929 16.9614 2.22222 16.6667 2.22222ZM10 8.88889C9.70532 8.88889 9.4227 9.00595 9.21433 9.21433C9.00595 9.4227 8.88889 9.70532 8.88889 10C8.88889 10.2947 9.00595 10.5773 9.21433 10.7857C9.4227 10.994 9.70532 11.1111 10 11.1111C10.2947 11.1111 10.5773 10.994 10.7857 10.7857C10.994 10.5773 11.1111 10.2947 11.1111 10C11.1111 9.70532 10.994 9.4227 10.7857 9.21433C10.5773 9.00595 10.2947 8.88889 10 8.88889ZM3.33333 15.5556C3.03865 15.5556 2.75603 15.6726 2.54766 15.881C2.33929 16.0894 2.22222 16.372 2.22222 16.6667C2.22222 16.9614 2.33929 17.244 2.54766 17.4523C2.75603 17.6607 3.03865 17.7778 3.33333 17.7778C3.62802 17.7778 3.91063 17.6607 4.11901 17.4523C4.32738 17.244 4.44444 16.9614 4.44444 16.6667C4.44444 16.372 4.32738 16.0894 4.11901 15.881C3.91063 15.6726 3.62802 15.5556 3.33333 15.5556ZM16.6667 15.5556C16.372 15.5556 16.0894 15.6726 15.881 15.881C15.6726 16.0894 15.5556 16.372 15.5556 16.6667C15.5556 16.9614 15.6726 17.244 15.881 17.4523C16.0894 17.6607 16.372 17.7778 16.6667 17.7778C16.9614 17.7778 17.244 17.6607 17.4523 17.4523C17.6607 17.244 17.7778 16.9614 17.7778 16.6667C17.7778 16.372 17.6607 16.0894 17.4523 15.881C17.244 15.6726 16.9614 15.5556 16.6667 15.5556Z" fill="#E93580"/>
</svg>
