<svg width="51" height="50" viewBox="0 0 51 50" fill="none" xmlns="http://www.w3.org/2000/svg">
<path fill-rule="evenodd" clip-rule="evenodd" d="M25.75 3.48837C24.7867 3.48837 24.0058 4.26927 24.0058 5.23256C24.0058 6.19585 24.7867 6.97674 25.75 6.97674C26.7133 6.97674 27.4942 6.19585 27.4942 5.23256C27.4942 4.26927 26.7133 3.48837 25.75 3.48837ZM20.642 4.09229C21.1624 1.75077 23.2518 0 25.75 0C28.2482 0 30.3376 1.75077 30.858 4.09229L42.7992 10.0629C43.5914 9.58032 44.522 9.30233 45.5174 9.30233C48.4073 9.30233 50.75 11.645 50.75 14.5349C50.75 16.8132 49.2939 18.7514 47.2616 19.4697V30.5303C49.2939 31.2486 50.75 33.1868 50.75 35.4651C50.75 38.355 48.4073 40.6977 45.5174 40.6977C44.3173 40.6977 43.2114 40.2936 42.3286 39.6141L30.8671 45.8658C30.3624 48.2283 28.2631 50 25.75 50C23.2518 50 21.1624 48.2492 20.642 45.9077L8.70082 39.9371C7.90859 40.4197 6.97804 40.6977 5.98256 40.6977C3.0927 40.6977 0.75 38.355 0.75 35.4651C0.75 33.1868 2.20606 31.2486 4.23837 30.5303V19.4697C2.20606 18.7514 0.75 16.8132 0.75 14.5349C0.75 11.645 3.0927 9.30233 5.98256 9.30233C6.97804 9.30233 7.90859 9.58032 8.70083 10.0629L20.642 4.09229ZM21.1542 7.73632L10.9363 12.8453C11.1171 13.3753 11.2151 13.9437 11.2151 14.5349C11.2151 14.593 11.2142 14.6508 11.2123 14.7084L20.877 20.5073L24.0058 18.7474V10.1674C22.7826 9.73502 21.7681 8.86072 21.1542 7.73632ZM27.4942 10.1674V18.7474L30.623 20.5073L40.2877 14.7084C40.2858 14.6508 40.2849 14.593 40.2849 14.5349C40.2849 13.9437 40.3829 13.3753 40.5637 12.8453L30.3458 7.73632C29.7319 8.86072 28.7174 9.73502 27.4942 10.1674ZM43.9429 13.7836C43.8342 14.0111 43.7733 14.2659 43.7733 14.5349C43.7733 15.4982 44.5542 16.2791 45.5174 16.2791C46.4807 16.2791 47.2616 15.4982 47.2616 14.5349C47.2616 13.5716 46.4807 12.7907 45.5174 12.7907C45.2484 12.7907 44.9936 12.8516 44.766 12.9604C44.7614 12.9701 44.7567 12.9797 44.7519 12.9893C44.5711 13.3509 44.2817 13.6223 43.9429 13.7836ZM41.5915 17.9943L32.1453 23.662V26.338L41.5915 32.0057C42.1753 31.3437 42.924 30.8305 43.7733 30.5303V19.4697C42.924 19.1695 42.1753 18.6563 41.5915 17.9943ZM40.2877 35.2916L30.623 29.4927L27.4942 31.2526V39.8326C28.6931 40.2564 29.6915 41.1047 30.3087 42.1969L40.4262 36.6782C40.3338 36.2889 40.2849 35.8827 40.2849 35.4651C40.2849 35.407 40.2858 35.3492 40.2877 35.2916ZM24.0058 39.8326V31.2526L20.877 29.4927L11.2123 35.2916C11.2142 35.3492 11.2151 35.407 11.2151 35.4651C11.2151 36.0563 11.1171 36.6247 10.9363 37.1547L21.1542 42.2637C21.7681 41.1393 22.7826 40.265 24.0058 39.8326ZM7.55709 36.2164C7.66585 35.9889 7.72674 35.7341 7.72674 35.4651C7.72674 34.5018 6.94585 33.7209 5.98256 33.7209C5.01927 33.7209 4.23837 34.5018 4.23837 35.4651C4.23837 36.4284 5.01927 37.2093 5.98256 37.2093C6.2516 37.2093 6.50641 37.1484 6.73396 37.0396C6.73857 37.0299 6.74328 37.0203 6.74809 37.0107C6.92889 36.6491 7.21834 36.3777 7.55709 36.2164ZM9.9085 32.0057L19.3547 26.338V23.662L9.9085 17.9943C9.32468 18.6563 8.57603 19.1695 7.72674 19.4697V30.5303C8.57603 30.8305 9.32468 31.3437 9.9085 32.0057ZM22.843 23.4038V26.5962L25.2848 27.9697C25.4329 27.9288 25.5889 27.907 25.75 27.907C25.9111 27.907 26.0671 27.9288 26.2152 27.9697L28.657 26.5962V23.4038L26.2152 22.0303C26.0671 22.0712 25.9111 22.093 25.75 22.093C25.5889 22.093 25.4329 22.0712 25.2848 22.0303L22.843 23.4038ZM6.73396 12.9604C6.73857 12.9701 6.74328 12.9797 6.74809 12.9893C6.92889 13.3509 7.21834 13.6223 7.55709 13.7836C7.66585 14.0111 7.72674 14.2659 7.72674 14.5349C7.72674 15.4982 6.94585 16.2791 5.98256 16.2791C5.01927 16.2791 4.23837 15.4982 4.23837 14.5349C4.23837 13.5716 5.01927 12.7907 5.98256 12.7907C6.2516 12.7907 6.50641 12.8516 6.73396 12.9604ZM45.5174 33.7209C44.5542 33.7209 43.7733 34.5018 43.7733 35.4651C43.7733 36.4284 44.5542 37.2093 45.5174 37.2093C46.4807 37.2093 47.2616 36.4284 47.2616 35.4651C47.2616 34.5018 46.4807 33.7209 45.5174 33.7209ZM25.75 43.0233C24.7867 43.0233 24.0058 43.8042 24.0058 44.7674C24.0058 45.7307 24.7867 46.5116 25.75 46.5116C26.7133 46.5116 27.4942 45.7307 27.4942 44.7674C27.4942 43.8042 26.7133 43.0233 25.75 43.0233Z" fill="#E93580"/>
</svg>
