<?xml version="1.0" encoding="utf-8"?><svg viewBox="0 0 1920 1585" xmlns="http://www.w3.org/2000/svg" xmlns:xlink="http://www.w3.org/1999/xlink"><style>:root>svg{display:none}:root>svg:target{display:block}</style><svg viewBox="0 0 20 20" id="aim" xmlns="http://www.w3.org/2000/svg"><path fill-rule="evenodd" clip-rule="evenodd" d="M16.38.543A.715.715 0 0 0 15.182.21l-2.86 2.86a.716.716 0 0 0-.187.679l.515 2.065-.02.02-3.42 3.419a1.073 1.073 0 0 0 1.516 1.516l3.422-3.418.02-.021 2.064.516a.715.715 0 0 0 .679-.187l2.86-2.86a.714.714 0 0 0-.333-1.202l-2.444-.609-.612-2.445Zm-5.96.543a1.073 1.073 0 0 1-.995 1.144 7.822 7.822 0 1 0 8.339 8.423 1.073 1.073 0 0 1 2.139.17A9.967 9.967 0 1 1 9.277.09a1.072 1.072 0 0 1 1.144.997Zm-.96 4.718a1.073 1.073 0 0 1-.608 1.39 3.032 3.032 0 1 0 3.932 3.92 1.071 1.071 0 0 1 1.982-.042 1.072 1.072 0 0 1 .018.82A5.176 5.176 0 1 1 8.07 5.197a1.073 1.073 0 0 1 1.389.608Z"/></svg><svg viewBox="0 0 10 6" id="arrow" xmlns="http://www.w3.org/2000/svg"><path d="m1 .5 4 4 4-4"/></svg><svg viewBox="0 0 20 20" id="brush" xmlns="http://www.w3.org/2000/svg"><path d="M1 19v-4a4 4 0 1 1 4 4H1Z"/><path d="M6.2 11.2A16 16 0 0 1 19 1 16 16 0 0 1 8.8 13.8"/><path d="M8.6 7a9 9 0 0 1 4.4 4.4"/></svg><svg viewBox="0 0 21 17" id="burger" xmlns="http://www.w3.org/2000/svg"><path d="M11 .5h10v2H11zm-7 7h17v2H4zm-4 7h21v2H0z"/></svg><svg viewBox="0 0 45 44" id="cup" xmlns="http://www.w3.org/2000/svg"><path d="M10.417 43.75v-4.833h9.666v-7.492a12.974 12.974 0 0 1-5.285-2.506 10.837 10.837 0 0 1-3.415-4.623c-3.02-.363-5.548-1.681-7.58-3.956C1.768 18.065.751 15.396.75 12.333V9.917c0-1.33.474-2.467 1.421-3.413.947-.945 2.085-1.42 3.412-1.42h4.834V.25h24.166v4.833h4.834c1.329 0 2.467.474 3.414 1.421.948.948 1.42 2.085 1.419 3.413v2.416c0 3.061-1.017 5.73-3.052 8.007-2.035 2.276-4.562 3.595-7.581 3.956a10.838 10.838 0 0 1-3.413 4.623 12.932 12.932 0 0 1-5.287 2.506v7.492h9.666v4.833H10.417Zm0-24.65V9.917H5.583v2.416c0 1.53.443 2.91 1.33 4.14.886 1.23 2.054 2.105 3.504 2.627ZM22.5 26.833c2.014 0 3.726-.704 5.135-2.114 1.41-1.41 2.115-3.122 2.115-5.136v-14.5h-14.5v14.5c0 2.014.705 3.726 2.115 5.136 1.41 1.41 3.121 2.114 5.135 2.114ZM34.583 19.1c1.45-.524 2.618-1.4 3.505-2.63a6.906 6.906 0 0 0 1.329-4.137V9.917h-4.834V19.1Z"/></svg><svg viewBox="0 0 39 50" id="energy" xmlns="http://www.w3.org/2000/svg"><path fill-rule="evenodd" clip-rule="evenodd" d="M7.113 1.502A2 2 0 0 1 9.05 0h17a2 2 0 0 1 1.942 2.478L25.202 13.8H36.25a2 2 0 0 1 1.475 3.35L8.26 49.35a2 2 0 0 1-3.424-1.802L8.8 30.45H2.25a2 2 0 0 1-1.937-2.498l6.8-26.45ZM10.601 4 4.829 26.45h6.488a2 2 0 0 1 1.948 2.452l-2.812 12.125L31.71 17.8h-9.06a2 2 0 0 1-1.942-2.478L23.498 4H10.6Zm4.594 4.108a2 2 0 0 1 1.464 2.42l-2.267 9.2a2 2 0 1 1-3.884-.956l2.267-9.2a2 2 0 0 1 2.42-1.464Z"/></svg><svg viewBox="0 0 30 31" id="github" xmlns="http://www.w3.org/2000/svg"><path d="M15 .5c-1.97 0-3.92.398-5.74 1.17a14.981 14.981 0 0 0-4.867 3.332C1.58 7.885 0 11.795 0 15.872c0 6.795 4.305 12.56 10.26 14.604.75.123.99-.353.99-.768V27.11c-4.155.922-5.04-2.06-5.04-2.06-.69-1.784-1.665-2.26-1.665-2.26-1.365-.953.105-.922.105-.922 1.5.107 2.295 1.583 2.295 1.583 1.305 2.337 3.51 1.645 4.365 1.276.135-1 .525-1.676.945-2.06-3.33-.384-6.825-1.706-6.825-7.563 0-1.707.57-3.075 1.545-4.166-.15-.384-.675-1.983.15-4.058 0 0 1.26-.416 4.125 1.568A13.812 13.812 0 0 1 15 7.94c1.275 0 2.565.17 3.75.508 2.865-1.984 4.125-1.568 4.125-1.568.825 2.075.3 3.674.15 4.058.975 1.091 1.545 2.46 1.545 4.166 0 5.872-3.51 7.163-6.855 7.548.54.476 1.035 1.414 1.035 2.843v4.213c0 .415.24.907 1.005.768C25.71 28.416 30 22.667 30 15.872a15.7 15.7 0 0 0-1.142-5.882 15.403 15.403 0 0 0-3.251-4.988A14.982 14.982 0 0 0 20.74 1.67 14.686 14.686 0 0 0 15 .5Z"/></svg><svg viewBox="0 0 46 46" id="hands" xmlns="http://www.w3.org/2000/svg"><path d="M9.613 4.459a.715.715 0 0 0 1.287-.394l.219-3.284a.725.725 0 0 0-.921-.754L8.038.7a.743.743 0 0 0-.365 1.147l1.94 2.613ZM5.865 7.033 2.912 5.795a.704.704 0 0 1-.239-1.143l1.54-1.635a.715.715 0 0 1 1.16.175l1.413 2.873a.717.717 0 0 1-.92.968Zm38.308 6.566a5.236 5.236 0 0 1 1.809 3.668v14.99a13.325 13.325 0 0 1-6.18 11.955 12.552 12.552 0 0 1-6.545 1.78 13.826 13.826 0 0 1-4.542-.772 12.733 12.733 0 0 1-4.358.78 13.155 13.155 0 0 1-10.678-5.306L8.166 31.7l-3.97-6.698a5.242 5.242 0 0 1 1.34-6.474 6.533 6.533 0 0 1 1.136-.617 5.013 5.013 0 0 1 1.747-5.682 6.77 6.77 0 0 1 1.096-.544 4.693 4.693 0 0 1 .01-1.237 4.998 4.998 0 0 1 2.383-3.57 5.1 5.1 0 0 1 5.631.439c.27-.285.57-.53.904-.735a4.56 4.56 0 0 1 3.41-.522 5.561 5.561 0 0 1 2.1-.15 4.496 4.496 0 0 1 2.445 1.056c.273-.29.58-.54.92-.75a4.775 4.775 0 0 1 6.523 1.67l3.29 5.873a4.716 4.716 0 0 1 3.321-1.428 5.241 5.241 0 0 1 3.721 1.268Zm-18.816 5.985h-.01l-.058.04.041-.026.028-.014ZM14.525 9.415a1.907 1.907 0 0 0-.966.18v-.007a1.794 1.794 0 0 0-.89 1.298c-.042.307.024.619.185.883l2.357 3.579a4.52 4.52 0 0 1 1.98-3.427c.076-.047.152-.08.227-.116.05-.022.103-.047.156-.074a1.588 1.588 0 0 1-1.04-.59l-.984-1.27a1.584 1.584 0 0 1-.096-.142 1.906 1.906 0 0 0-.93-.314Zm-3.634 5.158a3.17 3.17 0 0 0-.826.373l.005-.006a2.078 2.078 0 0 0-.33 2.092c.201.387.35.666.465.882l.011.02 2.231 3.351a5.11 5.11 0 0 1 1.23-2.476l-2.786-4.236Zm-.008 15.498 5.444 8.888.005-.006a9.813 9.813 0 0 0 8.174 3.87 11.748 11.748 0 0 1-1.995-2.17l-5.568-9.083-2.352-3.968a1.573 1.573 0 0 1-2.064-.492L8.26 20.72a2.702 2.702 0 0 0-.953.441 2.284 2.284 0 0 0-.395 2.21l3.97 6.7Zm20.28 12.59c2.39.48 4.873.071 6.983-1.15l.004-.006a10.192 10.192 0 0 0 4.665-9.055V17.366a2.061 2.061 0 0 0-2.282-1.856 1.66 1.66 0 0 0-1.62 1.503 222.694 222.694 0 0 0 1.38 2.453 1.587 1.587 0 0 1-2.748 1.587c-.502-.88-1-1.764-1.49-2.65l-.114-.202v-.095l-.023-.032a.195.195 0 0 1-.029-.036l-4.764-8.505a1.487 1.487 0 0 0-2.716.06l1.626 2.61.177.285a629.393 629.393 0 0 0 3.68 5.872 1.586 1.586 0 0 1-1.667 2.39 1.588 1.588 0 0 1-.999-.666 724.737 724.737 0 0 1-3.71-5.914l-1.362-2.184-.645-1.036-.02-.032-.046-.076a.092.092 0 0 0-.023-.02l-.025-.024-.993-1.29a1.6 1.6 0 0 1-.095-.142 1.176 1.176 0 0 0-.759-.306c-.4-.068-.81-.013-1.178.158a1.841 1.841 0 0 0-.907 1.322c-.04.294.016.593.159.853a6.829 6.829 0 0 1 2.012 1.238c.49.5.919 1.05 1.286 1.65.443.668.944 1.487 1.439 2.313.37.618.737 1.24 1.078 1.818l.129.218c.54.91.997 1.679 1.3 2.149a1.587 1.587 0 0 1-1.663 2.42 1.59 1.59 0 0 1-1.003-.689c-.364-.562-.913-1.495-1.505-2.496l-.221-.375-.002-.001c-.274-.465-.555-.942-.833-1.403a61.76 61.76 0 0 0-1.366-2.198 11.11 11.11 0 0 0-.678-.96l-.06-.066a3.655 3.655 0 0 0-1.198-.723 1.584 1.584 0 0 1-.345-.09c-.41.048-.802.199-1.14.435a2.125 2.125 0 0 0-.348 2.134l.504.936a7.184 7.184 0 0 1 1.845 1.14c.429.419.8.883 1.112 1.393.343.524.708 1.143 1.062 1.758.213.37.423.742.624 1.1l.011.02.064.114c.465.822.881 1.557 1.221 2.082a1.588 1.588 0 1 1-2.666 1.724c-.496-.793-.969-1.6-1.418-2.42l-.596-1.047a31.71 31.71 0 0 0-.964-1.601 11.104 11.104 0 0 0-.38-.54 2.244 2.244 0 0 0-.185-.219 4.29 4.29 0 0 0-1.179-.693 1.585 1.585 0 0 1-.34-.095 2.86 2.86 0 0 0-1.17.493 2.332 2.332 0 0 0-.397 2.247l4.008 6.773 5.5 8.98a10.006 10.006 0 0 0 6.003 3.748M1.7 8.044l2.749 1.844a.744.744 0 0 1-.332 1.35l-3.289.43a.737.737 0 0 1-.807-.907l.543-2.273A.75.75 0 0 1 1.7 8.044Z"/></svg><svg viewBox="0 0 20 20" id="instruments" xmlns="http://www.w3.org/2000/svg"><path d="M19.471 14.1 15.416 10l3.42-3.42a3.768 3.768 0 0 0 0-5.342 3.783 3.783 0 0 0-5.342 0L12.147 2.57l-2.133 2.133L5.898.542a1.907 1.907 0 0 0-2.664 0L.556 3.22a1.892 1.892 0 0 0 0 2.679l4.161 4.1-.333.334-1.347 1.331L.39 17.203a1.892 1.892 0 0 0 2.527 2.527l5.478-2.648.742-.742.59-.59.288-.348 4.055 4.056a1.907 1.907 0 0 0 2.664 0l2.678-2.679a1.892 1.892 0 0 0 .06-2.678ZM16.157 1.996c.503-.002.987.194 1.347.544a1.892 1.892 0 0 1 0 2.679l-2.678-2.603a1.922 1.922 0 0 1 1.331-.545v-.075ZM1.887 4.552l2.679-2.663 1.24 1.24L4.49 4.462l1.332 1.332L7.154 4.46l1.513 1.513-2.618 2.74-4.162-4.162Zm.197 13.483 2.376-4.888 2.527 2.512-4.903 2.376Zm6.31-3.632-2.678-2.678 7.778-7.778 2.663 2.663-7.763 7.793Zm7.067 3.708-4.055-4.04 2.678-2.679 1.408 1.407-1.332 1.332 1.332 1.347 1.346-1.347 1.302 1.316-2.679 2.664Z"/></svg><svg viewBox="0 0 20 20" id="internet" xmlns="http://www.w3.org/2000/svg"><path fill-rule="evenodd" clip-rule="evenodd" d="M7.666.183a9.524 9.524 0 0 1 11.381 9.341.952.952 0 0 1-1.904 0c0-.646-.082-1.286-.242-1.905H2.147a7.622 7.622 0 0 0 0 3.81h6.9a.952.952 0 1 1 0 1.905H2.926a7.619 7.619 0 0 0 6.599 3.81.952.952 0 0 1 0 1.904A9.524 9.524 0 0 1 7.666.183Zm-4.74 5.532h13.196a7.619 7.619 0 0 0-13.196 0Z"/><path fill-rule="evenodd" clip-rule="evenodd" d="M9.524.128a.952.952 0 0 0-1.284.32 17.143 17.143 0 0 0 0 18.152.952.952 0 0 0 1.615-1.009 15.238 15.238 0 0 1-.331-15.576 15.238 15.238 0 0 1 1.975 7.169.953.953 0 0 0 1.904-.043A17.142 17.142 0 0 0 10.808.449.952.952 0 0 0 9.524.128Zm3.02 12.417a3.81 3.81 0 0 1 5.976 4.628l1.2 1.201a.952.952 0 1 1-1.346 1.347l-1.201-1.201a3.81 3.81 0 0 1-4.629-5.975Zm2.694.789a1.905 1.905 0 1 0 0 3.809 1.905 1.905 0 0 0 0-3.81Z"/></svg><svg viewBox="0 0 20 20" id="internet2" xmlns="http://www.w3.org/2000/svg"><path d="M14.36 12c.08-.66.14-1.32.14-2 0-.68-.06-1.34-.14-2h3.38c.16.64.26 1.31.26 2s-.1 1.36-.26 2m-5.15 5.56c.6-1.11 1.06-2.31 1.38-3.56h2.95a8.03 8.03 0 0 1-4.33 3.56ZM12.34 12H7.66c-.1-.66-.16-1.32-.16-2 0-.68.06-1.35.16-2h4.68c.09.65.16 1.32.16 2 0 .68-.07 1.34-.16 2ZM10 17.96c-.83-1.2-1.5-2.53-1.91-3.96h3.82c-.41 1.43-1.08 2.76-1.91 3.96ZM6 6H3.08A7.92 7.92 0 0 1 7.4 2.44C6.8 3.55 6.35 4.75 6 6Zm-2.92 8H6c.35 1.25.8 2.45 1.4 3.56A8 8 0 0 1 3.08 14Zm-.82-2C2.1 11.36 2 10.69 2 10s.1-1.36.26-2h3.38c-.08.66-.14 1.32-.14 2 0 .68.06 1.34.14 2M10 2.03c.83 1.2 1.5 2.54 1.91 3.97H8.09C8.5 4.57 9.17 3.23 10 2.03ZM16.92 6h-2.95a15.703 15.703 0 0 0-1.38-3.56c1.84.63 3.37 1.9 4.33 3.56ZM10 0C4.47 0 0 4.5 0 10A10 10 0 1 0 10 0Z"/></svg><svg viewBox="0 0 20 16" id="large-arrow" xmlns="http://www.w3.org/2000/svg"><path d="M1.5 7h-1v2h1V7Zm17.707 1.707a1 1 0 0 0 0-1.414L12.843.929a1 1 0 1 0-1.414 1.414L17.086 8l-5.657 5.657a1 1 0 0 0 1.414 1.414l6.364-6.364ZM1.5 9h17V7h-17v2Z"/></svg><svg viewBox="0 0 25 26" id="logo" xmlns="http://www.w3.org/2000/svg"><path d="M11.844 20.658c-2.606-2.546 0-5.102 0-5.102l7.831-7.648-2.613-2.546-10.43 10.183s-2.607 2.546 0 5.103l3.771 3.683.489.477.963.942 2.608-2.547-2.619-2.545Z"/><path d="m22.294 10.455-5.225 5.1s-2.606 2.546 0 5.103L24.9 13.01l-2.606-2.556Zm-15.673 0 2.607-2.552 5.23-5.108L11.85.25 4.015 7.898 1.408 10.45s-2.606 2.545 0 5.1l2.607 2.546c-2.607-2.546 0-5.102 0-5.102l2.606-2.54Z"/></svg><svg viewBox="0 0 32 26" id="mail" xmlns="http://www.w3.org/2000/svg"><path d="M1 4.667a3.333 3.333 0 0 1 3.333-3.333h23.334A3.333 3.333 0 0 1 31 4.667v16.667a3.333 3.333 0 0 1-3.333 3.333H4.333A3.333 3.333 0 0 1 1 21.334V4.667Z"/><path d="m1 4.668 15 10 15-10"/></svg><svg viewBox="0 0 26 26" id="phone" xmlns="http://www.w3.org/2000/svg"><path d="m18.039 16.41-.645.64s-1.534 1.525-5.72-2.637c-4.187-4.162-2.652-5.686-2.652-5.686l.405-.406c1.001-.994 1.096-2.592.222-3.76L7.864 2.178C6.782.732 4.692.541 3.453 1.774l-2.224 2.21C.615 4.596.204 5.386.254 6.264.38 8.513 1.399 13.348 7.07 18.99c6.017 5.981 11.662 6.219 13.97 6.004.73-.068 1.365-.44 1.877-.95l2.011-2c1.36-1.35.978-3.666-.762-4.611l-2.706-1.472c-1.141-.619-2.53-.438-3.422.45Z"/></svg><svg viewBox="0 0 20 18" id="printer" xmlns="http://www.w3.org/2000/svg"><path d="M6 18c-.55 0-1.02-.196-1.412-.587A1.93 1.93 0 0 1 4 16v-2H2c-.55 0-1.02-.196-1.412-.587A1.93 1.93 0 0 1 0 12V8c0-.85.292-1.562.875-2.137S2.167 5.001 3 5h14c.85 0 1.563.288 2.138.863S20.001 7.151 20 8v4a1.93 1.93 0 0 1-.587 1.413A1.92 1.92 0 0 1 18 14h-2v2a1.93 1.93 0 0 1-.587 1.413A1.92 1.92 0 0 1 14 18H6Zm-4-6h2c0-.55.196-1.02.588-1.412A1.931 1.931 0 0 1 6 10h8c.55 0 1.021.196 1.413.588.392.392.588.863.587 1.412h2V8a.965.965 0 0 0-.288-.712A.972.972 0 0 0 17 7H3a.965.965 0 0 0-.712.288A.972.972 0 0 0 2 8v4Zm12-7V2H6v3H4V2c0-.55.196-1.02.588-1.412A1.93 1.93 0 0 1 6 0h8c.55 0 1.021.196 1.413.588.392.392.588.863.587 1.412v3h-2Zm2 4.5a.968.968 0 0 0 .713-.288A.964.964 0 0 0 17 8.5a.973.973 0 0 0-.288-.712A.965.965 0 0 0 16 7.5a.965.965 0 0 0-.712.288A.973.973 0 0 0 15 8.5c0 .283.095.52.288.713A.96.96 0 0 0 16 9.5ZM14 16v-4H6v4h8Z"/></svg><svg viewBox="0 0 16 20" id="report" xmlns="http://www.w3.org/2000/svg"><path d="M0 2a2 2 0 0 1 2-2h8a1 1 0 0 1 .707.293l5 5A1 1 0 0 1 16 6v12a2 2 0 0 1-2 2H2a2 2 0 0 1-2-2V2Zm13.586 4L10 2.414V6h3.586ZM8 2H2v16h12V8H9a1 1 0 0 1-1-1V2Zm-4 9a1 1 0 0 1 1-1h6a1 1 0 0 1 0 2H5a1 1 0 0 1-1-1Zm0 4a1 1 0 0 1 1-1h6a1 1 0 0 1 0 2H5a1 1 0 0 1-1-1Z"/></svg><svg viewBox="0 0 18 18" id="settings" xmlns="http://www.w3.org/2000/svg"><path d="M13 12c1.306 0 2.418.835 2.83 2H17a1 1 0 0 1 0 2h-1.17a3 3 0 0 1-5.66 0H1a1 1 0 0 1 0-2h9.17A3 3 0 0 1 13 12ZM5 6a3 3 0 0 1 2.762 1.828L7.829 8H17a1 1 0 0 1 .117 1.993L17 10H7.83a3 3 0 0 1-5.592.172L2.17 10H1a1 1 0 0 1-.117-1.993L1 8h1.17A3 3 0 0 1 5 6Zm8-6c1.306 0 2.418.835 2.83 2H17a1 1 0 1 1 0 2h-1.17a3 3 0 0 1-5.66 0H1a1 1 0 0 1 0-2h9.17A3 3 0 0 1 13 0Z"/></svg><svg class="ashidden" viewBox="0 0 0 0" id="sprite"/><svg viewBox="0 0 20 20" id="strange" xmlns="http://www.w3.org/2000/svg"><path fill-rule="evenodd" clip-rule="evenodd" d="M.976.976a3.333 3.333 0 0 1 5.5 1.246h7.048a3.333 3.333 0 1 1 4.254 4.254v7.048a3.333 3.333 0 1 1-4.254 4.254H6.476a3.333 3.333 0 1 1-4.254-4.254V6.476A3.333 3.333 0 0 1 .976.976Zm3.468 5.5v7.048a3.333 3.333 0 0 1 2.032 2.032h7.048a3.333 3.333 0 0 1 2.032-2.032V6.476a3.333 3.333 0 0 1-2.032-2.032H6.476c-.04.111-.084.22-.135.326l2.222 2.222a3.333 3.333 0 1 1-1.57 1.571L4.77 6.341c-.106.05-.215.096-.326.135Zm-1.11-4.254a1.111 1.111 0 1 0 0 2.222 1.111 1.111 0 0 0 0-2.222Zm13.333 0a1.111 1.111 0 1 0 0 2.223 1.111 1.111 0 0 0 0-2.223ZM10 8.89a1.111 1.111 0 1 0 0 2.222 1.111 1.111 0 0 0 0-2.222Zm-6.667 6.667a1.111 1.111 0 1 0 0 2.222 1.111 1.111 0 0 0 0-2.222Zm13.334 0a1.111 1.111 0 1 0 0 2.222 1.111 1.111 0 0 0 0-2.222Z"/></svg><svg viewBox="0 0 20 20" id="table" xmlns="http://www.w3.org/2000/svg"><path d="M17.5 0h-15A2.5 2.5 0 0 0 0 2.5v15A2.5 2.5 0 0 0 2.5 20h15a2.5 2.5 0 0 0 2.5-2.5v-15A2.5 2.5 0 0 0 17.5 0Zm-6.25 17.5H2.5V8.75h8.75v8.75Zm6.25 0h-3.75V8.75h3.75v8.75Zm0-11.25h-15V2.5h15v3.75Z"/></svg><svg viewBox="0 0 51 50" id="technologies" xmlns="http://www.w3.org/2000/svg"><path fill-rule="evenodd" clip-rule="evenodd" d="M25.75 3.488a1.744 1.744 0 1 0 0 3.489 1.744 1.744 0 0 0 0-3.489Zm-5.108.604a5.235 5.235 0 0 1 10.216 0l11.941 5.97a5.233 5.233 0 1 1 4.462 9.407V30.53a5.235 5.235 0 0 1-1.744 10.168 5.21 5.21 0 0 1-3.188-1.084l-11.462 6.252a5.235 5.235 0 0 1-10.225.042l-11.941-5.97a5.233 5.233 0 1 1-4.462-9.407V19.47A5.235 5.235 0 1 1 8.7 10.063l11.941-5.97Zm.512 3.644-10.218 5.11a5.224 5.224 0 0 1 .276 1.862l9.665 5.8 3.129-1.76v-8.58a5.25 5.25 0 0 1-2.852-2.432Zm6.34 2.431v8.58l3.129 1.76 9.665-5.799a5.261 5.261 0 0 1 .276-1.863L30.346 7.736a5.25 5.25 0 0 1-2.852 2.431Zm16.449 3.617a1.744 1.744 0 1 0 .823-.823l-.014.028c-.18.362-.47.633-.81.795Zm-2.351 4.21-9.447 5.668v2.676l9.447 5.668a5.24 5.24 0 0 1 2.181-1.476V19.47a5.24 5.24 0 0 1-2.181-1.476Zm-1.304 17.298-9.665-5.8-3.129 1.76v8.58a5.25 5.25 0 0 1 2.815 2.365l10.117-5.519a5.248 5.248 0 0 1-.138-1.386Zm-16.282 4.54v-8.58l-3.129-1.76-9.665 5.8a5.261 5.261 0 0 1-.276 1.863l10.218 5.109a5.25 5.25 0 0 1 2.852-2.431ZM7.557 36.217a1.744 1.744 0 1 0-.823.823l.014-.028c.18-.362.47-.633.81-.795Zm2.351-4.21 9.447-5.668v-2.676l-9.447-5.668a5.24 5.24 0 0 1-2.181 1.476v11.06c.849.3 1.598.814 2.181 1.476Zm12.935-8.602v3.192l2.442 1.374a1.745 1.745 0 0 1 .93 0l2.442-1.374v-3.192l-2.442-1.374a1.745 1.745 0 0 1-.93 0l-2.442 1.374ZM6.734 12.96l.014.03c.18.36.47.632.81.794a1.744 1.744 0 1 1-.823-.823Zm38.783 20.76a1.744 1.744 0 1 0 0 3.49 1.744 1.744 0 0 0 0-3.49ZM25.75 43.024a1.744 1.744 0 1 0 0 3.489 1.744 1.744 0 0 0 0-3.489Z"/></svg><svg viewBox="0 0 35 29" id="telegram" xmlns="http://www.w3.org/2000/svg"><path fill-rule="evenodd" clip-rule="evenodd" d="M30.962.383a2.5 2.5 0 0 1 3.436 2.71l-3.78 22.929c-.366 2.211-2.793 3.48-4.821 2.378-1.697-.922-4.217-2.342-6.484-3.823-1.133-.742-4.605-3.117-4.178-4.807.367-1.445 6.2-6.875 9.533-10.103 1.309-1.269.712-2-.833-.834-3.837 2.897-9.997 7.302-12.033 8.542-1.797 1.093-2.734 1.28-3.854 1.093-2.043-.34-3.938-.866-5.485-1.508-2.09-.867-1.988-3.74-.001-4.577l28.5-12Z"/></svg><svg viewBox="0 0 1920 1585" id="test" xmlns="http://www.w3.org/2000/svg"><mask id="axb" maskUnits="userSpaceOnUse" x="-697" y="-1002" width="3315" height="2587"><ellipse cx="1664.49" cy="772.14" rx="431.868" ry="336.24" transform="rotate(-46.971 1664.49 772.14)"/><circle cx="1924.89" cy="892.192" r="692.192"/><circle cx="333.944" cy="28.944" r="1030.94" transform="rotate(180 333.944 28.944)"/></mask><g filter="url(#axa)" mask="url(#axb)"><g filter="url(#axc)"><circle cx="656" cy="1170" r="144"/></g><g filter="url(#axd)"><circle cx="1214" cy="481" r="324"/></g><g filter="url(#axe)"><circle cx="2430" cy="2279" r="334"/></g><g filter="url(#axf)"><circle cx="-499" cy="1427" r="198"/></g></g><defs><filter id="axa" x="-1097" y="-243" width="4261" height="4048" filterUnits="userSpaceOnUse" color-interpolation-filters="sRGB"><feFlood flood-opacity="0" result="BackgroundImageFix"/><feBlend in="SourceGraphic" in2="BackgroundImageFix" result="shape"/><feGaussianBlur stdDeviation="200" result="effect1_foregroundBlur_3003_4352"/></filter><filter id="axc" x="312" y="826" width="688" height="688" filterUnits="userSpaceOnUse" color-interpolation-filters="sRGB"><feFlood flood-opacity="0" result="BackgroundImageFix"/><feBlend in="SourceGraphic" in2="BackgroundImageFix" result="shape"/><feGaussianBlur stdDeviation="100" result="effect1_foregroundBlur_3003_4352"/></filter><filter id="axd" x="690" y="-43" width="1048" height="1048" filterUnits="userSpaceOnUse" color-interpolation-filters="sRGB"><feFlood flood-opacity="0" result="BackgroundImageFix"/><feBlend in="SourceGraphic" in2="BackgroundImageFix" result="shape"/><feGaussianBlur stdDeviation="100" result="effect1_foregroundBlur_3003_4352"/></filter><filter id="axe" x="1696" y="1545" width="1468" height="1468" filterUnits="userSpaceOnUse" color-interpolation-filters="sRGB"><feFlood flood-opacity="0" result="BackgroundImageFix"/><feBlend in="SourceGraphic" in2="BackgroundImageFix" result="shape"/><feGaussianBlur stdDeviation="200" result="effect1_foregroundBlur_3003_4352"/></filter><filter id="axf" x="-1097" y="829" width="1196" height="1196" filterUnits="userSpaceOnUse" color-interpolation-filters="sRGB"><feFlood flood-opacity="0" result="BackgroundImageFix"/><feBlend in="SourceGraphic" in2="BackgroundImageFix" result="shape"/><feGaussianBlur stdDeviation="200" result="effect1_foregroundBlur_3003_4352"/></filter></defs></svg><svg viewBox="0 0 1920 1585" id="test2" xmlns="http://www.w3.org/2000/svg"><g filter="url(#aya)"><ellipse cx="1664.49" cy="772.14" rx="431.868" ry="336.24" transform="rotate(-46.971 1664.49 772.14)"/></g><circle cx="1924.89" cy="892.192" r="692.192"/><circle cx="333.944" cy="28.944" r="1030.94" transform="rotate(180 333.944 28.944)"/><defs><filter id="aya" x="1130.73" y="231.845" width="1067.51" height="1080.59" filterUnits="userSpaceOnUse" color-interpolation-filters="sRGB"><feFlood flood-opacity="0" result="BackgroundImageFix"/><feBlend in="SourceGraphic" in2="BackgroundImageFix" result="shape"/><feGaussianBlur stdDeviation="75" result="effect1_foregroundBlur_3003_4348"/></filter></defs></svg><svg viewBox="0 0 15 12" id="tick" xmlns="http://www.w3.org/2000/svg"><path d="M1 4.857 5.727 10 14 1"/></svg><svg viewBox="0 0 31 30" id="vk" xmlns="http://www.w3.org/2000/svg"><path d="M5.212 4.712c-.574.582-.95 1.399-1.16 2.95-.215 1.609-.217 3.739-.217 6.804v1.066c0 3.06.002 5.189.217 6.795.208 1.554.586 2.375 1.161 2.962.584.572 1.4.95 2.95 1.158 1.609.215 3.739.219 6.804.219h1.066c3.06 0 5.189-.004 6.797-.219 1.552-.208 2.373-.586 2.96-1.161.572-.582.95-1.399 1.158-2.95.217-1.609.219-3.739.219-6.804v-1.066c0-3.06-.004-5.189-.217-6.795-.21-1.554-.588-2.375-1.163-2.962-.582-.572-1.399-.95-2.95-1.158-1.609-.215-3.739-.219-6.804-.219h-1.066c-3.06 0-5.189.004-6.795.219-1.554.208-2.374.586-2.96 1.161ZM14.967 0h1.066c2.409 0 4.854-.072 7.245.248 1.927.259 3.559.81 4.862 2.1l.013.015c1.289 1.307 1.842 2.939 2.1 4.867.319 2.388.247 4.832.247 7.237v1.066c0 2.407.073 4.852-.248 7.245-.257 1.927-.81 3.559-2.1 4.862l-.015.013c-1.305 1.289-2.937 1.84-4.867 2.1-2.388.319-4.832.247-7.237.247h-1.066c-2.407 0-4.852.072-7.244-.248-1.928-.259-3.56-.81-4.861-2.1l-.015-.015C1.56 26.33 1.007 24.698.748 22.77.428 20.382.5 17.939.5 15.532v-1.066c0-2.407-.072-4.852.25-7.245.257-1.927.81-3.559 2.1-4.862l.013-.013C4.17 1.057 5.802.506 7.73.246c2.39-.317 4.833-.247 7.237-.247ZM5.56 9.129c.16 7.8 4.06 12.48 10.9 12.48h.4v-4.46c2.51.25 4.41 2.09 5.17 4.46h3.55a9.867 9.867 0 0 0-5.13-6.26 9.532 9.532 0 0 0 4.38-6.23h-3.22c-.7 2.48-2.78 4.73-4.75 4.94v-4.93h-3.23v8.64c-2-.5-4.52-2.92-4.63-8.64H5.56Z"/></svg></svg>